<svg width="18" height="18" viewBox="0 0 18 18" fill="none" xmlns="http://www.w3.org/2000/svg">
<g clip-path="url(#clip0_473_248)">
<path d="M1.125 1.125C1.74727 1.125 2.25 1.62773 2.25 2.25V14.0625C2.25 14.3719 2.50312 14.625 2.8125 14.625H16.875C17.4973 14.625 18 15.1277 18 15.75C18 16.3723 17.4973 16.875 16.875 16.875H2.8125C1.25859 16.875 0 15.6164 0 14.0625V2.25C0 1.62773 0.502734 1.125 1.125 1.125ZM4.5 4.5C4.5 3.87773 5.00273 3.375 5.625 3.375H12.375C12.9973 3.375 13.5 3.87773 13.5 4.5C13.5 5.12227 12.9973 5.625 12.375 5.625H5.625C5.00273 5.625 4.5 5.12227 4.5 4.5ZM5.625 6.75H10.125C10.7473 6.75 11.25 7.25273 11.25 7.875C11.25 8.49727 10.7473 9 10.125 9H5.625C5.00273 9 4.5 8.49727 4.5 7.875C4.5 7.25273 5.00273 6.75 5.625 6.75ZM5.625 10.125H14.625C15.2473 10.125 15.75 10.6277 15.75 11.25C15.75 11.8723 15.2473 12.375 14.625 12.375H5.625C5.00273 12.375 4.5 11.8723 4.5 11.25C4.5 10.6277 5.00273 10.125 5.625 10.125Z" fill="#0033FF"/>
</g>
<defs>
<clipPath id="clip0_473_248">
<path d="M0 0H18V18H0V0Z" fill="white"/>
</clipPath>
</defs>
</svg>
