<svg width="12" height="13" viewBox="0 0 12 13" fill="none" xmlns="http://www.w3.org/2000/svg">
<path d="M10.6508 5.37347H10.6186V4.58515C10.6186 2.05284 8.56583 0 6.03349 0C3.50116 0 1.44835 2.05284 1.44835 4.58515V5.37347H1.2553C0.54741 5.37347 0.000418267 6.0009 0.000418267 6.72489V8.73592C-0.0174114 9.43762 0.537002 10.0209 1.2387 10.0387C1.24424 10.0389 1.24976 10.039 1.2553 10.0391H2.44582C2.61445 10.0311 2.74474 9.88798 2.73679 9.71935C2.73652 9.71328 2.73605 9.70722 2.73541 9.70118V5.75956C2.73541 5.56652 2.62279 5.37344 2.44582 5.37344H2.09188V4.58512C2.09188 2.40824 3.85661 0.6435 6.03349 0.6435C8.21038 0.6435 9.97511 2.40824 9.97511 4.58512V5.37344H9.62117C9.44419 5.37344 9.33158 5.56649 9.33158 5.75956V9.70118C9.31363 9.86904 9.43514 10.0197 9.603 10.0376C9.60903 10.0383 9.6151 10.0387 9.62117 10.039H9.99119L9.95901 10.0873C9.47625 10.7289 8.71872 11.1046 7.9158 11.1008C7.74003 10.2389 6.8988 9.6827 6.03691 9.85851C5.29986 10.0088 4.76845 10.6543 4.76251 11.4065C4.77131 12.2888 5.48906 12.9993 6.37133 12.9992C6.80808 12.9922 7.22439 12.8129 7.52968 12.5005C7.73566 12.2896 7.87063 12.0196 7.9158 11.7283C8.92128 11.7321 9.86952 11.2609 10.4738 10.4573L10.7795 10.0068C11.4713 9.95856 11.9057 9.52418 11.9057 8.89672V6.8857C11.9057 6.19397 11.3909 5.37347 10.6508 5.37347ZM2.09188 9.39552H1.2553C0.908869 9.38708 0.634865 9.09944 0.643302 8.75301C0.643456 8.74731 0.643672 8.74161 0.643949 8.73589V6.72486C0.643949 6.35484 0.901355 6.01697 1.2553 6.01697H2.09188V9.39552ZM7.06315 12.0501C6.88485 12.2434 6.63434 12.3541 6.37136 12.3558C5.84793 12.3475 5.42316 11.9298 5.40607 11.4065C5.40585 10.8823 5.83065 10.4572 6.35489 10.457C6.87912 10.4567 7.30427 10.8815 7.30448 11.4058C7.30448 11.406 7.30448 11.4063 7.30448 11.4065C7.31788 11.6454 7.2303 11.8789 7.06315 12.0501ZM11.2622 8.89678C11.2622 9.33116 10.8439 9.39552 10.6508 9.39552H9.97511V6.017H10.6508C11.0048 6.017 11.2622 6.51574 11.2622 6.88576V8.89678Z" fill="#6B7280"/>
</svg>
