<svg width="14" height="16" viewBox="0 0 14 16" fill="none" xmlns="http://www.w3.org/2000/svg">
<g clip-path="url(#clip0_422_1118)">
<path d="M0 2.5C0 1.67188 0.671875 1 1.5 1H4.5C5.32812 1 6 1.67188 6 2.5V5.5C6 6.32812 5.32812 7 4.5 7H1.5C0.671875 7 0 6.32812 0 5.5V2.5ZM2 3V5H4V3H2ZM0 10.5C0 9.67188 0.671875 9 1.5 9H4.5C5.32812 9 6 9.67188 6 10.5V13.5C6 14.3281 5.32812 15 4.5 15H1.5C0.671875 15 0 14.3281 0 13.5V10.5ZM2 11V13H4V11H2ZM9.5 1H12.5C13.3281 1 14 1.67188 14 2.5V5.5C14 6.32812 13.3281 7 12.5 7H9.5C8.67188 7 8 6.32812 8 5.5V2.5C8 1.67188 8.67188 1 9.5 1ZM12 3H10V5H12V3ZM8 9.5C8 9.225 8.225 9 8.5 9H10.5C10.775 9 11 9.225 11 9.5C11 9.775 11.225 10 11.5 10H12.5C12.775 10 13 9.775 13 9.5C13 9.225 13.225 9 13.5 9C13.775 9 14 9.225 14 9.5V12.5C14 12.775 13.775 13 13.5 13H11.5C11.225 13 11 12.775 11 12.5C11 12.225 10.775 12 10.5 12C10.225 12 10 12.225 10 12.5V14.5C10 14.775 9.775 15 9.5 15H8.5C8.225 15 8 14.775 8 14.5V9.5ZM11.5 15C11.3674 15 11.2402 14.9473 11.1464 14.8536C11.0527 14.7598 11 14.6326 11 14.5C11 14.3674 11.0527 14.2402 11.1464 14.1464C11.2402 14.0527 11.3674 14 11.5 14C11.6326 14 11.7598 14.0527 11.8536 14.1464C11.9473 14.2402 12 14.3674 12 14.5C12 14.6326 11.9473 14.7598 11.8536 14.8536C11.7598 14.9473 11.6326 15 11.5 15ZM13.5 15C13.3674 15 13.2402 14.9473 13.1464 14.8536C13.0527 14.7598 13 14.6326 13 14.5C13 14.3674 13.0527 14.2402 13.1464 14.1464C13.2402 14.0527 13.3674 14 13.5 14C13.6326 14 13.7598 14.0527 13.8536 14.1464C13.9473 14.2402 14 14.3674 14 14.5C14 14.6326 13.9473 14.7598 13.8536 14.8536C13.7598 14.9473 13.6326 15 13.5 15Z" fill="#2563EB"/>
</g>
<defs>
<clipPath id="clip0_422_1118">
<path d="M0 0H14V16H0V0Z" fill="white"/>
</clipPath>
</defs>
</svg>
