<svg width="16" height="18" viewBox="0 0 16 18" fill="none" xmlns="http://www.w3.org/2000/svg">
<g clip-path="url(#clip0_429_2725)">
<path d="M0.330475 8.20542C-0.108978 8.64487 -0.108978 9.35855 0.330475 9.798L5.95547 15.423C6.39493 15.8625 7.1086 15.8625 7.54805 15.423C7.98751 14.9835 7.98751 14.2699 7.54805 13.8304L3.83907 10.125H14.625C15.2473 10.125 15.75 9.62222 15.75 8.99995C15.75 8.37769 15.2473 7.87495 14.625 7.87495H3.84258L7.54454 4.16948C7.98399 3.73003 7.98399 3.01636 7.54454 2.5769C7.10508 2.13745 6.39141 2.13745 5.95196 2.5769L0.326959 8.2019L0.330475 8.20542Z" fill="#374151"/>
</g>
<defs>
<clipPath id="clip0_429_2725">
<path d="M0 0H15.75V18H0V0Z" fill="white"/>
</clipPath>
</defs>
</svg>
