<svg width="32" height="32" viewBox="0 0 32 32" fill="none" xmlns="http://www.w3.org/2000/svg">
<path d="M24 0C28.4183 0 32 3.58172 32 8V24C32 28.4183 28.4183 32 24 32H8C3.58172 32 0 28.4183 0 24V8C0 3.58172 3.58172 0 8 0H24Z" fill="#FAF5FF"/>
<path d="M24 0C28.4183 0 32 3.58172 32 8V24C32 28.4183 28.4183 32 24 32H8C3.58172 32 0 28.4183 0 24V8C0 3.58172 3.58172 0 8 0H24Z" stroke="#E5E7EB"/>
<path d="M23 26H9V6H23V26Z" stroke="#E5E7EB"/>
<g clip-path="url(#clip0_425_1766)">
<path d="M14.0312 10.0625H17.9688C18.0891 10.0625 18.1875 10.1609 18.1875 10.2812V11.375H13.8125V10.2812C13.8125 10.1609 13.9109 10.0625 14.0312 10.0625ZM12.5 10.2812V11.375H10.75C9.78477 11.375 9 12.1598 9 13.125V15.75H14.25H17.75H23V13.125C23 12.1598 22.2152 11.375 21.25 11.375H19.5V10.2812C19.5 9.43633 18.8137 8.75 17.9688 8.75H14.0312C13.1863 8.75 12.5 9.43633 12.5 10.2812ZM23 16.625H17.75V17.5C17.75 17.984 17.359 18.375 16.875 18.375H15.125C14.641 18.375 14.25 17.984 14.25 17.5V16.625H9V20.125C9 21.0902 9.78477 21.875 10.75 21.875H21.25C22.2152 21.875 23 21.0902 23 20.125V16.625Z" fill="#9333EA"/>
</g>
<defs>
<clipPath id="clip0_425_1766">
<path d="M9 8.75H23V22.75H9V8.75Z" fill="white"/>
</clipPath>
</defs>
</svg>
