<svg width="32" height="32" viewBox="0 0 32 32" fill="none" xmlns="http://www.w3.org/2000/svg">
<path d="M0 8C0 3.58172 3.58172 0 8 0H24C28.4183 0 32 3.58172 32 8V24C32 28.4183 28.4183 32 24 32H8C3.58172 32 0 28.4183 0 24V8Z" fill="#FAF5FF"/>
<path d="M14.0312 10.3125H17.9688C18.0891 10.3125 18.1875 10.4109 18.1875 10.5312V11.625H13.8125V10.5312C13.8125 10.4109 13.9109 10.3125 14.0312 10.3125ZM12.5 10.5312V11.625H10.75C9.78477 11.625 9 12.4098 9 13.375V16H14.25H17.75H23V13.375C23 12.4098 22.2152 11.625 21.25 11.625H19.5V10.5312C19.5 9.68633 18.8137 9 17.9688 9H14.0312C13.1863 9 12.5 9.68633 12.5 10.5312ZM23 16.875H17.75V17.75C17.75 18.234 17.359 18.625 16.875 18.625H15.125C14.641 18.625 14.25 18.234 14.25 17.75V16.875H9V20.375C9 21.3402 9.78477 22.125 10.75 22.125H21.25C22.2152 22.125 23 21.3402 23 20.375V16.875Z" fill="#9333EA"/>
</svg>
