<svg width="32" height="32" viewBox="0 0 32 32" fill="none" xmlns="http://www.w3.org/2000/svg">
<path d="M24 0C28.4183 0 32 3.58172 32 8V24C32 28.4183 28.4183 32 24 32H8C3.58172 32 0 28.4183 0 24V8C0 3.58172 3.58172 0 8 0H24Z" fill="#FEFCE8"/>
<path d="M24 0C28.4183 0 32 3.58172 32 8V24C32 28.4183 28.4183 32 24 32H8C3.58172 32 0 28.4183 0 24V8C0 3.58172 3.58172 0 8 0H24Z" stroke="#E5E7EB"/>
<path d="M22.125 26H9.875V6H22.125V26Z" stroke="#E5E7EB"/>
<g clip-path="url(#clip0_425_1813)">
<path d="M16 8.75C15.516 8.75 15.125 9.14102 15.125 9.625V10.15C13.1289 10.5547 11.625 12.3211 11.625 14.4375V14.9516C11.625 16.2367 11.1519 17.4781 10.2988 18.4406L10.0964 18.6676C9.86676 18.9246 9.81207 19.2937 9.95153 19.6082C10.091 19.9227 10.4054 20.125 10.75 20.125H21.25C21.5945 20.125 21.9062 19.9227 22.0484 19.6082C22.1906 19.2937 22.1332 18.9246 21.9035 18.6676L21.7011 18.4406C20.848 17.4781 20.375 16.2395 20.375 14.9516V14.4375C20.375 12.3211 18.8711 10.5547 16.875 10.15V9.625C16.875 9.14102 16.4839 8.75 16 8.75ZM17.2386 22.2387C17.5668 21.9105 17.75 21.4648 17.75 21H16H14.25C14.25 21.4648 14.4332 21.9105 14.7613 22.2387C15.0894 22.5668 15.5351 22.75 16 22.75C16.4648 22.75 16.9105 22.5668 17.2386 22.2387Z" fill="#CA8A04"/>
</g>
<defs>
<clipPath id="clip0_425_1813">
<path d="M9.875 8.75H22.125V22.75H9.875V8.75Z" fill="white"/>
</clipPath>
</defs>
</svg>
