<svg width="32" height="32" viewBox="0 0 32 32" fill="none" xmlns="http://www.w3.org/2000/svg">
<path d="M24 0C28.4183 0 32 3.58172 32 8V24C32 28.4183 28.4183 32 24 32H8C3.58172 32 0 28.4183 0 24V8C0 3.58172 3.58172 0 8 0H24Z" fill="#FEFCE8"/>
<path d="M24 0C28.4183 0 32 3.58172 32 8V24C32 28.4183 28.4183 32 24 32H8C3.58172 32 0 28.4183 0 24V8C0 3.58172 3.58172 0 8 0H24Z" stroke="#E5E7EB"/>
<path d="M16.1245 9C15.6405 9 15.2495 9.39102 15.2495 9.875V10.4C13.2534 10.8047 11.7495 12.5711 11.7495 14.6875V15.2016C11.7495 16.4867 11.2764 17.7281 10.4233 18.6906L10.221 18.9176C9.99127 19.1746 9.93659 19.5437 10.076 19.8582C10.2155 20.1727 10.5299 20.375 10.8745 20.375H21.3745C21.719 20.375 22.0307 20.1727 22.1729 19.8582C22.3151 19.5437 22.2577 19.1746 22.028 18.9176L21.8256 18.6906C20.9725 17.7281 20.4995 16.4895 20.4995 15.2016V14.6875C20.4995 12.5711 18.9956 10.8047 16.9995 10.4V9.875C16.9995 9.39102 16.6085 9 16.1245 9ZM17.3631 22.4887C17.6913 22.1605 17.8745 21.7148 17.8745 21.25H16.1245H14.3745C14.3745 21.7148 14.5577 22.1605 14.8858 22.4887C15.2139 22.8168 15.6596 23 16.1245 23C16.5893 23 17.035 22.8168 17.3631 22.4887Z" fill="#CA8A04"/>
</svg>
