<svg width="13" height="14" viewBox="0 0 13 14" fill="none" xmlns="http://www.w3.org/2000/svg">
<path d="M3.5 0C3.98398 0 4.375 0.391016 4.375 0.875V1.75H7.875V0.875C7.875 0.391016 8.26602 0 8.75 0C9.23398 0 9.625 0.391016 9.625 0.875V1.75H10.9375C11.6621 1.75 12.25 2.33789 12.25 3.0625V4.375H0V3.0625C0 2.33789 0.587891 1.75 1.3125 1.75H2.625V0.875C2.625 0.391016 3.01602 0 3.5 0ZM0 5.25H12.25V12.6875C12.25 13.4121 11.6621 14 10.9375 14H1.3125C0.587891 14 0 13.4121 0 12.6875V5.25ZM8.99609 8.33984C9.25313 8.08281 9.25313 7.66719 8.99609 7.41289C8.73906 7.15859 8.32344 7.15586 8.06914 7.41289L5.47148 10.0105L4.18633 8.72539C3.9293 8.46836 3.51367 8.46836 3.25937 8.72539C3.00508 8.98242 3.00234 9.39805 3.25937 9.65234L5.00938 11.4023C5.26641 11.6594 5.68203 11.6594 5.93633 11.4023L8.99609 8.33984Z" fill="#10B981"/>
</svg>
