<svg width="13" height="20" viewBox="0 0 13 20" fill="none" xmlns="http://www.w3.org/2000/svg">
<path d="M12.25 20H0V0H12.25V20Z" stroke="#E5E7EB"/>
<g clip-path="url(#clip0_426_1978)">
<path d="M3.5 2.75C3.98398 2.75 4.375 3.14102 4.375 3.625V4.5H7.875V3.625C7.875 3.14102 8.26602 2.75 8.75 2.75C9.23398 2.75 9.625 3.14102 9.625 3.625V4.5H10.9375C11.6621 4.5 12.25 5.08789 12.25 5.8125V7.125H0V5.8125C0 5.08789 0.587891 4.5 1.3125 4.5H2.625V3.625C2.625 3.14102 3.01602 2.75 3.5 2.75ZM0 8H12.25V15.4375C12.25 16.1621 11.6621 16.75 10.9375 16.75H1.3125C0.587891 16.75 0 16.1621 0 15.4375V8ZM8.99609 11.0898C9.25313 10.8328 9.25313 10.4172 8.99609 10.1629C8.73906 9.90859 8.32344 9.90586 8.06914 10.1629L5.47148 12.7605L4.18633 11.4754C3.9293 11.2184 3.51367 11.2184 3.25937 11.4754C3.00508 11.7324 3.00234 12.148 3.25937 12.4023L5.00938 14.1523C5.26641 14.4094 5.68203 14.4094 5.93633 14.1523L8.99609 11.0898Z" fill="#10B981"/>
</g>
<defs>
<clipPath id="clip0_426_1978">
<path d="M0 2.75H12.25V16.75H0V2.75Z" fill="white"/>
</clipPath>
</defs>
</svg>
