<svg width="32" height="32" viewBox="0 0 32 32" fill="none" xmlns="http://www.w3.org/2000/svg">
<path d="M0 8C0 3.58172 3.58172 0 8 0H24C28.4183 0 32 3.58172 32 8V24C32 28.4183 28.4183 32 24 32H8C3.58172 32 0 28.4183 0 24V8Z" fill="#EFF6FF"/>
<path d="M16.125 16C17.0533 16 17.9435 15.6313 18.5999 14.9749C19.2563 14.3185 19.625 13.4283 19.625 12.5C19.625 11.5717 19.2563 10.6815 18.5999 10.0251C17.9435 9.36875 17.0533 9 16.125 9C15.1967 9 14.3065 9.36875 13.6501 10.0251C12.9937 10.6815 12.625 11.5717 12.625 12.5C12.625 13.4283 12.9937 14.3185 13.6501 14.9749C14.3065 15.6313 15.1967 16 16.125 16ZM14.8754 17.3125C12.182 17.3125 10 19.4945 10 22.1879C10 22.6363 10.3637 23 10.8121 23H21.4379C21.8863 23 22.25 22.6363 22.25 22.1879C22.25 19.4945 20.068 17.3125 17.3746 17.3125H14.8754Z" fill="#2563EB"/>
</svg>
