<svg width="32" height="32" viewBox="0 0 32 32" fill="none" xmlns="http://www.w3.org/2000/svg">
<path d="M24 0C28.4183 0 32 3.58172 32 8V24C32 28.4183 28.4183 32 24 32H8C3.58172 32 0 28.4183 0 24V8C0 3.58172 3.58172 0 8 0H24Z" fill="#EFF6FF"/>
<path d="M24 0C28.4183 0 32 3.58172 32 8V24C32 28.4183 28.4183 32 24 32H8C3.58172 32 0 28.4183 0 24V8C0 3.58172 3.58172 0 8 0H24Z" stroke="#E5E7EB"/>
<path d="M22.125 26H9.875V6H22.125V26Z" stroke="#E5E7EB"/>
<g clip-path="url(#clip0_425_1757)">
<path d="M16 15.75C16.9283 15.75 17.8185 15.3813 18.4749 14.7249C19.1313 14.0685 19.5 13.1783 19.5 12.25C19.5 11.3217 19.1313 10.4315 18.4749 9.77513C17.8185 9.11875 16.9283 8.75 16 8.75C15.0717 8.75 14.1815 9.11875 13.5251 9.77513C12.8687 10.4315 12.5 11.3217 12.5 12.25C12.5 13.1783 12.8687 14.0685 13.5251 14.7249C14.1815 15.3813 15.0717 15.75 16 15.75ZM14.7504 17.0625C12.057 17.0625 9.875 19.2445 9.875 21.9379C9.875 22.3863 10.2387 22.75 10.6871 22.75H21.3129C21.7613 22.75 22.125 22.3863 22.125 21.9379C22.125 19.2445 19.943 17.0625 17.2496 17.0625H14.7504Z" fill="#2563EB"/>
</g>
<defs>
<clipPath id="clip0_425_1757">
<path d="M9.875 8.75H22.125V22.75H9.875V8.75Z" fill="white"/>
</clipPath>
</defs>
</svg>
