<svg width="40" height="40" viewBox="0 0 40 40" fill="none" xmlns="http://www.w3.org/2000/svg">
<path d="M20 0C31.0457 0 40 8.95431 40 20C40 31.0457 31.0457 40 20 40C8.95431 40 0 31.0457 0 20C0 8.95431 8.95431 0 20 0Z" fill="white" fill-opacity="0.2"/>
<path d="M20 0C31.0457 0 40 8.95431 40 20C40 31.0457 31.0457 40 20 40C8.95431 40 0 31.0457 0 20C0 8.95431 8.95431 0 20 0Z" stroke="#E5E7EB"/>
<path d="M27.875 34H12.125V6H27.875V34Z" stroke="#E5E7EB"/>
<g clip-path="url(#clip0_20_195)">
<path d="M24.4086 11.818C24.616 11.3364 24.4613 10.7739 24.0359 10.4645C23.6105 10.1552 23.0305 10.1833 22.6332 10.5278L13.6332 18.4028C13.2816 18.7122 13.1551 19.2079 13.3203 19.6438C13.4855 20.0798 13.9074 20.3751 14.375 20.3751H18.2949L15.5914 26.6821C15.384 27.1637 15.5387 27.7262 15.9641 28.0356C16.3894 28.345 16.9695 28.3169 17.3668 27.9723L26.3668 20.0973C26.7184 19.788 26.8449 19.2923 26.6797 18.8563C26.5144 18.4204 26.0961 18.1286 25.625 18.1286H21.7051L24.4086 11.818Z" fill="white"/>
</g>
<defs>
<clipPath id="clip0_20_195">
<path d="M12.125 10.25H27.875V28.25H12.125V10.25Z" fill="white"/>
</clipPath>
</defs>
</svg>
