<svg width="38" height="38" viewBox="0 0 38 38" fill="none" xmlns="http://www.w3.org/2000/svg">
<rect width="38" height="38" rx="19" fill="#DCFCE7"/>
<path d="M31.25 34H8.75V6H31.25V34Z" stroke="#E5E7EB"/>
<g clip-path="url(#clip0_934_201)">
<path d="M10.4375 10.25C9.50586 10.25 8.75 11.0059 8.75 11.9375V23.1875C8.75 24.1191 9.50586 24.875 10.4375 24.875H11C11 26.7383 12.5117 28.25 14.375 28.25C16.2383 28.25 17.75 26.7383 17.75 24.875H22.25C22.25 26.7383 23.7617 28.25 25.625 28.25C27.4883 28.25 29 26.7383 29 24.875H30.125C30.7473 24.875 31.25 24.3723 31.25 23.75C31.25 23.1277 30.7473 22.625 30.125 22.625V20.375V19.25V18.5926C30.125 17.9949 29.8895 17.4219 29.4676 17L26.75 14.2824C26.3281 13.8605 25.7551 13.625 25.1574 13.625H23.375V11.9375C23.375 11.0059 22.6191 10.25 21.6875 10.25H10.4375ZM23.375 15.875H25.1574L27.875 18.5926V19.25H23.375V15.875ZM12.6875 24.875C12.6875 24.4274 12.8653 23.9982 13.1818 23.6818C13.4982 23.3653 13.9274 23.1875 14.375 23.1875C14.8226 23.1875 15.2518 23.3653 15.5682 23.6818C15.8847 23.9982 16.0625 24.4274 16.0625 24.875C16.0625 25.3226 15.8847 25.7518 15.5682 26.0682C15.2518 26.3847 14.8226 26.5625 14.375 26.5625C13.9274 26.5625 13.4982 26.3847 13.1818 26.0682C12.8653 25.7518 12.6875 25.3226 12.6875 24.875ZM25.625 23.1875C26.0726 23.1875 26.5018 23.3653 26.8182 23.6818C27.1347 23.9982 27.3125 24.4274 27.3125 24.875C27.3125 25.3226 27.1347 25.7518 26.8182 26.0682C26.5018 26.3847 26.0726 26.5625 25.625 26.5625C25.1774 26.5625 24.7482 26.3847 24.4318 26.0682C24.1153 25.7518 23.9375 25.3226 23.9375 24.875C23.9375 24.4274 24.1153 23.9982 24.4318 23.6818C24.7482 23.3653 25.1774 23.1875 25.625 23.1875Z" fill="#16A34A"/>
</g>
<defs>
<clipPath id="clip0_934_201">
<path d="M8.75 10.25H31.25V28.25H8.75V10.25Z" fill="white"/>
</clipPath>
</defs>
</svg>
