<svg width="24" height="24" viewBox="0 0 24 24" fill="none" xmlns="http://www.w3.org/2000/svg">
<path d="M18 0C21.3137 0 24 2.68629 24 6V18C24 21.3137 21.3137 24 18 24H6C2.68629 24 0 21.3137 0 18V6C0 2.68629 2.68629 0 6 0H18Z" fill="#0033FF"/>
<path d="M18 0C21.3137 0 24 2.68629 24 6V18C24 21.3137 21.3137 24 18 24H6C2.68629 24 0 21.3137 0 18V6C0 2.68629 2.68629 0 6 0H18Z" stroke="#E5E7EB"/>
<path d="M18.75 20H5.25V4H18.75V20Z" stroke="#E5E7EB"/>
<g clip-path="url(#clip0_477_610)">
<path d="M5.25 7.75H18.75C18.75 6.92266 18.0773 6.25 17.25 6.25H6.75C5.92266 6.25 5.25 6.92266 5.25 7.75ZM5.25 8.5V15.25C5.25 16.0773 5.92266 16.75 6.75 16.75H17.25C18.0773 16.75 18.75 16.0773 18.75 15.25V8.5H5.25ZM6.75 14.9992C6.75 14.3078 7.31016 13.75 7.99922 13.75H10.7508C11.4422 13.75 12 14.3102 12 14.9992C12 15.1375 11.8875 15.25 11.7492 15.25H7.00078C6.8625 15.25 6.75 15.1375 6.75 14.9992ZM9.375 10C9.77282 10 10.1544 10.158 10.4357 10.4393C10.717 10.7206 10.875 11.1022 10.875 11.5C10.875 11.8978 10.717 12.2794 10.4357 12.5607C10.1544 12.842 9.77282 13 9.375 13C8.97718 13 8.59564 12.842 8.31434 12.5607C8.03304 12.2794 7.875 11.8978 7.875 11.5C7.875 11.1022 8.03304 10.7206 8.31434 10.4393C8.59564 10.158 8.97718 10 9.375 10ZM13.5 10.375C13.5 10.1688 13.6687 10 13.875 10H16.875C17.0813 10 17.25 10.1688 17.25 10.375C17.25 10.5813 17.0813 10.75 16.875 10.75H13.875C13.6687 10.75 13.5 10.5813 13.5 10.375ZM13.5 11.875C13.5 11.6687 13.6687 11.5 13.875 11.5H16.875C17.0813 11.5 17.25 11.6687 17.25 11.875C17.25 12.0813 17.0813 12.25 16.875 12.25H13.875C13.6687 12.25 13.5 12.0813 13.5 11.875ZM13.5 13.375C13.5 13.1687 13.6687 13 13.875 13H16.875C17.0813 13 17.25 13.1687 17.25 13.375C17.25 13.5813 17.0813 13.75 16.875 13.75H13.875C13.6687 13.75 13.5 13.5813 13.5 13.375Z" fill="white"/>
</g>
<defs>
<clipPath id="clip0_477_610">
<path d="M5.25 5.5H18.75V17.5H5.25V5.5Z" fill="white"/>
</clipPath>
</defs>
</svg>
