<svg width="14" height="24" viewBox="0 0 14 24" fill="none" xmlns="http://www.w3.org/2000/svg">
<path d="M14 24H0V0H14V24Z" stroke="#E5E7EB"/>
<g clip-path="url(#clip0_426_2106)">
<path d="M13.7063 12.7062C14.0969 12.3155 14.0969 11.6812 13.7063 11.2905L8.70625 6.29053C8.31563 5.8999 7.68125 5.8999 7.29063 6.29053C6.9 6.68115 6.9 7.31553 7.29063 7.70615L10.5875 10.9999H1C0.446875 10.9999 0 11.4468 0 11.9999C0 12.553 0.446875 12.9999 1 12.9999H10.5844L7.29375 16.2937C6.90312 16.6843 6.90312 17.3187 7.29375 17.7093C7.68437 18.0999 8.31875 18.0999 8.70938 17.7093L13.7094 12.7093L13.7063 12.7062Z" fill="#9CA3AF"/>
</g>
<defs>
<clipPath id="clip0_426_2106">
<path d="M0 4H14V20H0V4Z" fill="white"/>
</clipPath>
</defs>
</svg>
