<svg width="26" height="26" viewBox="0 0 26 26" fill="none" xmlns="http://www.w3.org/2000/svg">
<path d="M19.8593 4.31641C18.6693 4.31641 17.7011 5.28455 17.7011 6.47461C17.7011 7.66468 18.6693 8.63282 19.8593 8.63282C20.2354 8.63282 20.5891 8.53593 20.8973 8.36617L20.438 7.9069C20.1901 7.65899 20.1901 7.2571 20.438 7.00919C20.6859 6.76128 21.0878 6.76128 21.3357 7.00919L21.7812 7.4547C21.932 7.16037 22.0176 6.82739 22.0176 6.47467C22.0175 5.28455 21.0494 4.31641 19.8593 4.31641Z" fill="#374151"/>
<path d="M12.4668 7.26107H13.998L13.2359 5.2417L12.4668 7.26107Z" fill="#374151"/>
<path d="M23.5879 0H6.32227C4.99007 0 3.91016 1.07992 3.91016 2.41212V10.5371C3.91016 11.8693 4.99007 12.9492 6.32227 12.9492H8.48048V15.7114C8.48048 16.39 9.30095 16.7299 9.78084 16.25L13.0816 12.9492H23.5879C24.9201 12.9492 26.0001 11.8693 26.0001 10.5371V2.41212C26.0001 1.07992 24.9201 0 23.5879 0ZM9.57441 7.05648H8.12501V9.2676C8.12501 9.61814 7.84079 9.90237 7.49024 9.90237C7.1397 9.90237 6.85548 9.61814 6.85548 9.2676V3.68165C6.85548 3.33111 7.1397 3.04688 7.49024 3.04688H9.75423C10.1048 3.04688 10.389 3.33111 10.389 3.68165C10.389 4.03219 10.1048 4.31642 9.75423 4.31642H8.12501V5.78694H9.57441C9.92501 5.78694 10.2092 6.07117 10.2092 6.42171C10.2092 6.77225 9.92501 7.05648 9.57441 7.05648ZM15.6578 9.86149C15.584 9.88932 15.5082 9.90252 15.4337 9.90252C15.1772 9.90257 14.9357 9.74591 14.8397 9.4917L14.4771 8.53076H11.9833L11.6166 9.49353C11.4918 9.82112 11.1251 9.98555 10.7974 9.86078C10.4698 9.73601 10.3054 9.36921 10.4302 9.04162L12.5277 3.53438C12.5296 3.52956 12.5315 3.52479 12.5334 3.51996C12.6509 3.23284 12.9272 3.04714 13.2374 3.04688H13.2381C13.5481 3.04688 13.8244 3.23203 13.9422 3.51869C13.9446 3.52438 13.9468 3.53022 13.949 3.53601L16.0275 9.0435C16.1513 9.37145 15.9858 9.73773 15.6578 9.86149ZM23.1227 9.69391C22.8748 9.94182 22.4729 9.94182 22.225 9.69391L21.817 9.28593C21.2615 9.67395 20.5868 9.90242 19.8593 9.90242C17.9692 9.90242 16.4316 8.36476 16.4316 6.47468C16.4316 4.58459 17.9692 3.04693 19.8593 3.04693C21.7494 3.04693 23.2871 4.58459 23.2871 6.47468C23.2871 7.17947 23.0731 7.83511 22.7069 8.3804L23.1227 8.7962C23.3706 9.04406 23.3706 9.446 23.1227 9.69391Z" fill="#374151"/>
<path d="M10.8581 17.3274C10.4255 17.76 9.85357 17.9982 9.24774 17.9982C7.98466 17.9982 6.9571 16.9724 6.9571 15.7115V14.4728H6.32233C4.15219 14.4728 2.38672 12.7073 2.38672 10.5372V9.52612C1.06631 9.53983 0 10.614 0 11.9376V20.0626C0 21.3948 1.07992 22.4747 2.41212 22.4747H3.5547V25.2369C3.5547 25.9155 4.37517 26.2553 4.85505 25.7755L8.15584 22.4747H18.6622C19.9944 22.4747 21.0743 21.3948 21.0743 20.0626V14.4728H13.7126L10.8581 17.3274Z" fill="#374151"/>
</svg>
