<svg width="32" height="32" viewBox="0 0 32 32" fill="none" xmlns="http://www.w3.org/2000/svg">
<path d="M24 0C28.4183 0 32 3.58172 32 8V24C32 28.4183 28.4183 32 24 32H8C3.58172 32 0 28.4183 0 24V8C0 3.58172 3.58172 0 8 0H24Z" fill="#EEF2FF"/>
<path d="M24 0C28.4183 0 32 3.58172 32 8V24C32 28.4183 28.4183 32 24 32H8C3.58172 32 0 28.4183 0 24V8C0 3.58172 3.58172 0 8 0H24Z" stroke="#E5E7EB"/>
<path d="M18.625 16C18.625 16.607 18.5922 17.1922 18.5348 17.75H13.4652C13.4051 17.1922 13.375 16.607 13.375 16C13.375 15.393 13.4078 14.8078 13.4652 14.25H18.5348C18.5949 14.8078 18.625 15.393 18.625 16ZM19.4125 14.25H22.7785C22.9234 14.8105 23 15.3957 23 16C23 16.6043 22.9234 17.1895 22.7785 17.75H19.4125C19.4699 17.1867 19.5 16.6016 19.5 16C19.5 15.3984 19.4699 14.8133 19.4125 14.25ZM22.4914 13.375H19.3004C19.027 11.6277 18.4855 10.1648 17.7883 9.22969C19.9293 9.7957 21.6711 11.3488 22.4887 13.375H22.4914ZM18.4145 13.375H13.5855C13.7523 12.3797 14.0094 11.4992 14.3238 10.7855C14.6109 10.1402 14.9309 9.67266 15.2398 9.37734C15.5461 9.0875 15.8004 9 16 9C16.1996 9 16.4539 9.0875 16.7602 9.37734C17.0691 9.67266 17.3891 10.1402 17.6762 10.7855C17.9934 11.4965 18.2477 12.377 18.4145 13.375ZM12.6996 13.375H9.50859C10.3289 11.3488 12.068 9.7957 14.2117 9.22969C13.5145 10.1648 12.973 11.6277 12.6996 13.375ZM9.22148 14.25H12.5875C12.5301 14.8133 12.5 15.3984 12.5 16C12.5 16.6016 12.5301 17.1867 12.5875 17.75H9.22148C9.07656 17.1895 9 16.6043 9 16C9 15.3957 9.07656 14.8105 9.22148 14.25ZM14.3238 21.2117C14.0066 20.5008 13.7523 19.6203 13.5855 18.625H18.4145C18.2477 19.6203 17.9906 20.5008 17.6762 21.2117C17.3891 21.857 17.0691 22.3246 16.7602 22.6199C16.4539 22.9125 16.1996 23 16 23C15.8004 23 15.5461 22.9125 15.2398 22.6227C14.9309 22.3273 14.6109 21.8598 14.3238 21.2145V21.2117ZM12.6996 18.625C12.973 20.3723 13.5145 21.8352 14.2117 22.7703C12.068 22.2043 10.3289 20.6512 9.50859 18.625H12.6996ZM22.4914 18.625C21.6711 20.6512 19.932 22.2043 17.791 22.7703C18.4883 21.8352 19.027 20.3723 19.3031 18.625H22.4914Z" fill="#4F46E5"/>
</svg>
