<svg width="32" height="32" viewBox="0 0 32 32" fill="none" xmlns="http://www.w3.org/2000/svg">
<path d="M24 0C28.4183 0 32 3.58172 32 8V24C32 28.4183 28.4183 32 24 32H8C3.58172 32 0 28.4183 0 24V8C0 3.58172 3.58172 0 8 0H24Z" fill="#EEF2FF"/>
<path d="M24 0C28.4183 0 32 3.58172 32 8V24C32 28.4183 28.4183 32 24 32H8C3.58172 32 0 28.4183 0 24V8C0 3.58172 3.58172 0 8 0H24Z" stroke="#E5E7EB"/>
<path d="M23 26H9V6H23V26Z" stroke="#E5E7EB"/>
<g clip-path="url(#clip0_425_1797)">
<path d="M18.625 15.75C18.625 16.357 18.5922 16.9422 18.5348 17.5H13.4652C13.4051 16.9422 13.375 16.357 13.375 15.75C13.375 15.143 13.4078 14.5578 13.4652 14H18.5348C18.5949 14.5578 18.625 15.143 18.625 15.75ZM19.4125 14H22.7785C22.9234 14.5605 23 15.1457 23 15.75C23 16.3543 22.9234 16.9395 22.7785 17.5H19.4125C19.4699 16.9367 19.5 16.3516 19.5 15.75C19.5 15.1484 19.4699 14.5633 19.4125 14ZM22.4914 13.125H19.3004C19.027 11.3777 18.4855 9.91484 17.7883 8.97969C19.9293 9.5457 21.6711 11.0988 22.4887 13.125H22.4914ZM18.4145 13.125H13.5855C13.7523 12.1297 14.0094 11.2492 14.3238 10.5355C14.6109 9.89023 14.9309 9.42266 15.2398 9.12734C15.5461 8.8375 15.8004 8.75 16 8.75C16.1996 8.75 16.4539 8.8375 16.7602 9.12734C17.0691 9.42266 17.3891 9.89023 17.6762 10.5355C17.9934 11.2465 18.2477 12.127 18.4145 13.125ZM12.6996 13.125H9.50859C10.3289 11.0988 12.068 9.5457 14.2117 8.97969C13.5145 9.91484 12.973 11.3777 12.6996 13.125ZM9.22148 14H12.5875C12.5301 14.5633 12.5 15.1484 12.5 15.75C12.5 16.3516 12.5301 16.9367 12.5875 17.5H9.22148C9.07656 16.9395 9 16.3543 9 15.75C9 15.1457 9.07656 14.5605 9.22148 14ZM14.3238 20.9617C14.0066 20.2508 13.7523 19.3703 13.5855 18.375H18.4145C18.2477 19.3703 17.9906 20.2508 17.6762 20.9617C17.3891 21.607 17.0691 22.0746 16.7602 22.3699C16.4539 22.6625 16.1996 22.75 16 22.75C15.8004 22.75 15.5461 22.6625 15.2398 22.3727C14.9309 22.0773 14.6109 21.6098 14.3238 20.9645V20.9617ZM12.6996 18.375C12.973 20.1223 13.5145 21.5852 14.2117 22.5203C12.068 21.9543 10.3289 20.4012 9.50859 18.375H12.6996ZM22.4914 18.375C21.6711 20.4012 19.932 21.9543 17.791 22.5203C18.4883 21.5852 19.027 20.1223 19.3031 18.375H22.4914Z" fill="#4F46E5"/>
</g>
<defs>
<clipPath id="clip0_425_1797">
<path d="M9 8.75H23V22.75H9V8.75Z" fill="white"/>
</clipPath>
</defs>
</svg>
