<svg width="48" height="48" viewBox="0 0 48 48" fill="none" xmlns="http://www.w3.org/2000/svg">
<path d="M36 0C42.6274 0 48 5.37258 48 12V36C48 42.6274 42.6274 48 36 48H12C5.37258 48 0 42.6274 0 36V12C0 5.37258 5.37258 0 12 0H36Z" fill="#10B981" fill-opacity="0.1"/>
<path d="M36 0C42.6274 0 48 5.37258 48 12V36C48 42.6274 42.6274 48 36 48H12C5.37258 48 0 42.6274 0 36V12C0 5.37258 5.37258 0 12 0H36Z" stroke="#E5E7EB"/>
<path d="M34 38H14V10H34V38Z" stroke="#E5E7EB"/>
<g clip-path="url(#clip0_426_2056)">
<path d="M22.2422 13.785C22.0078 13.5389 21.6563 13.4452 21.3281 13.5311C21 13.6171 20.7461 13.8788 20.6602 14.2069L20.043 16.6483L17.6211 15.9647C17.293 15.871 16.9414 15.9647 16.7031 16.203C16.4649 16.4413 16.3711 16.7929 16.4649 17.121L17.1484 19.5429L14.707 20.1639C14.3789 20.246 14.1211 20.5038 14.0313 20.8319C13.9414 21.16 14.0391 21.5077 14.2852 21.7421L16.0899 23.4999L14.2852 25.2577C14.0391 25.4921 13.9453 25.8436 14.0313 26.1718C14.1172 26.4999 14.3789 26.7538 14.707 26.8397L17.1484 27.4569L16.4649 29.8788C16.3711 30.2069 16.4649 30.5585 16.7031 30.7968C16.9414 31.035 17.293 31.1288 17.6211 31.035L20.043 30.3514L20.6602 32.7929C20.7422 33.121 21 33.3788 21.3281 33.4686C21.6563 33.5585 22.0039 33.4608 22.2422 33.2186L24 31.4139L25.7578 33.2186C25.9961 33.4608 26.3438 33.5585 26.6719 33.4686C27 33.3788 27.2539 33.121 27.3399 32.7929L27.957 30.3514L30.3789 31.035C30.707 31.1288 31.0586 31.035 31.2969 30.7968C31.5352 30.5585 31.6289 30.2069 31.5352 29.8788L30.8516 27.4569L33.293 26.8397C33.6211 26.7577 33.8789 26.4999 33.9688 26.1718C34.0586 25.8436 33.9609 25.496 33.7188 25.2577L31.9141 23.4999L33.7188 21.7421C33.9609 21.5038 34.0586 21.1561 33.9688 20.828C33.8789 20.4999 33.6211 20.246 33.293 20.16L30.8516 19.5429L31.5352 17.121C31.6289 16.7929 31.5352 16.4413 31.2969 16.203C31.0586 15.9647 30.707 15.871 30.3789 15.9647L27.957 16.6483L27.3359 14.2069C27.2539 13.8788 26.9961 13.621 26.668 13.5311C26.3399 13.4413 25.9922 13.5389 25.7578 13.785L24 15.5897L22.2422 13.785Z" fill="#10B981"/>
</g>
<defs>
<clipPath id="clip0_426_2056">
<path d="M14 13.5H34V33.5H14V13.5Z" fill="white"/>
</clipPath>
</defs>
</svg>
