<svg width="48" height="48" viewBox="0 0 48 48" fill="none" xmlns="http://www.w3.org/2000/svg">
<path d="M36 0C42.6274 0 48 5.37258 48 12V36C48 42.6274 42.6274 48 36 48H12C5.37258 48 0 42.6274 0 36V12C0 5.37258 5.37258 0 12 0H36Z" fill="#10B981" fill-opacity="0.1"/>
<path d="M36 0C42.6274 0 48 5.37258 48 12V36C48 42.6274 42.6274 48 36 48H12C5.37258 48 0 42.6274 0 36V12C0 5.37258 5.37258 0 12 0H36Z" stroke="#E5E7EB"/>
<path d="M22.2438 14.2868C22.0094 14.0407 21.6578 13.9469 21.3297 14.0328C21.0016 14.1188 20.7477 14.3805 20.6618 14.7086L20.0446 17.15L17.6227 16.4664C17.2946 16.3727 16.943 16.4664 16.7047 16.7047C16.4664 16.943 16.3727 17.2946 16.4664 17.6227L17.15 20.0446L14.7086 20.6657C14.3805 20.7477 14.1227 21.0055 14.0328 21.3336C13.943 21.6618 14.0407 22.0094 14.2868 22.2438L16.0914 24.0016L14.2868 25.7594C14.0407 25.9938 13.9469 26.3453 14.0328 26.6735C14.1188 27.0016 14.3805 27.2555 14.7086 27.3414L17.15 27.9586L16.4664 30.3805C16.3727 30.7086 16.4664 31.0602 16.7047 31.2985C16.943 31.5368 17.2946 31.6305 17.6227 31.5368L20.0446 30.8532L20.6618 33.2946C20.7438 33.6227 21.0016 33.8805 21.3297 33.9703C21.6578 34.0602 22.0055 33.9625 22.2438 33.7203L24.0016 31.9157L25.7594 33.7203C25.9977 33.9625 26.3453 34.0602 26.6735 33.9703C27.0016 33.8805 27.2555 33.6227 27.3414 33.2946L27.9586 30.8532L30.3805 31.5368C30.7086 31.6305 31.0602 31.5368 31.2985 31.2985C31.5368 31.0602 31.6305 30.7086 31.5368 30.3805L30.8532 27.9586L33.2946 27.3414C33.6227 27.2594 33.8805 27.0016 33.9703 26.6735C34.0602 26.3453 33.9625 25.9977 33.7203 25.7594L31.9157 24.0016L33.7203 22.2438C33.9625 22.0055 34.0602 21.6578 33.9703 21.3297C33.8805 21.0016 33.6227 20.7477 33.2946 20.6618L30.8532 20.0446L31.5368 17.6227C31.6305 17.2946 31.5368 16.943 31.2985 16.7047C31.0602 16.4664 30.7086 16.3727 30.3805 16.4664L27.9586 17.15L27.3375 14.7086C27.2555 14.3805 26.9977 14.1227 26.6696 14.0328C26.3414 13.943 25.9938 14.0407 25.7594 14.2868L24.0016 16.0914L22.2438 14.2868Z" fill="#10B981"/>
</svg>
