<svg width="150" height="150" viewBox="0 0 150 150" fill="none" xmlns="http://www.w3.org/2000/svg">
<path d="M144.719 74.9967C147.035 72.2991 148.659 69.0769 149.448 65.6099C150.238 62.1428 150.169 58.5355 149.249 55.1009C148.328 51.6662 146.584 48.5081 144.167 45.9003C141.749 43.2925 138.732 41.3139 135.377 40.136C136.035 36.6414 135.829 33.0391 134.779 29.6417C133.729 26.2444 131.866 23.1545 129.352 20.6402C126.837 18.126 123.747 16.2632 120.349 15.2136C116.952 14.164 113.35 13.9592 109.855 14.6171C108.678 11.2612 106.7 8.24337 104.092 5.82552C101.484 3.40767 98.3256 1.66291 94.8905 0.742721C91.4554 -0.177472 87.8476 -0.245282 84.3803 0.545179C80.9131 1.33564 77.6912 2.96048 74.9943 5.27863C72.2967 2.96208 69.0746 1.3387 65.6075 0.549331C62.1404 -0.240038 58.5331 -0.171561 55.0984 0.748821C51.6638 1.6692 48.5056 3.41369 45.8978 5.83095C43.2901 8.24821 41.3115 11.2652 40.1336 14.6203C36.6392 13.9635 33.0373 14.1692 29.6404 15.2195C26.2435 16.2699 23.1541 18.1331 20.6402 20.6476C18.1263 23.1621 16.2639 26.252 15.2145 29.6492C14.165 33.0464 13.9602 36.6483 14.6179 40.1425C11.2628 41.3204 8.2458 43.299 5.82854 45.9068C3.41128 48.5145 1.66678 51.6727 0.746396 55.1074C-0.173986 58.542 -0.242473 62.1493 0.546896 65.6164C1.33626 69.0835 2.95967 72.3056 5.27622 75.0032C2.95896 77.7008 1.33506 80.9231 0.545467 84.3906C-0.244126 87.858 -0.175579 91.4658 0.745206 94.9007C1.66599 98.3356 3.41116 101.494 5.82925 104.101C8.24734 106.709 11.2653 108.687 14.6212 109.864C13.9629 113.358 14.1675 116.96 15.217 120.358C16.2666 123.755 18.1295 126.845 20.644 129.359C23.1585 131.873 26.2486 133.736 29.6461 134.785C33.0436 135.834 36.6459 136.038 40.1401 135.38C41.318 138.735 43.2966 141.752 45.9044 144.169C48.5121 146.586 51.6703 148.331 55.1049 149.251C58.5396 150.171 62.1469 150.24 65.6139 149.451C69.081 148.661 72.3032 147.038 75.0008 144.721C77.6984 147.039 80.9207 148.662 84.3882 149.452C87.8556 150.242 91.4633 150.173 94.8983 149.252C98.3332 148.332 101.492 146.586 104.099 144.168C106.707 141.75 108.685 138.732 109.861 135.376C113.356 136.034 116.958 135.83 120.356 134.78C123.753 133.731 126.843 131.868 129.357 129.353C131.872 126.839 133.735 123.749 134.784 120.352C135.834 116.954 136.038 113.352 135.38 109.857C138.736 108.68 141.753 106.701 144.17 104.093C146.588 101.486 148.332 98.3271 149.252 94.8923C150.173 91.4574 150.24 87.8499 149.45 84.3828C148.66 80.9158 147.036 77.6938 144.719 74.9967Z" fill="#0033FF"/>
<path d="M61.5342 103.626L40.6925 82.7977C39.9016 82.0055 39.4573 80.9317 39.4573 79.8122C39.4573 78.6927 39.9016 77.619 40.6925 76.8267L43.2246 74.2914C44.0169 73.5004 45.0906 73.0562 46.2101 73.0562C47.3296 73.0562 48.4034 73.5004 49.1956 74.2914L64.3458 89.4318L100.026 51.5158C100.793 50.7012 101.853 50.2245 102.972 50.1904C104.091 50.1562 105.177 50.5675 105.993 51.3338L108.594 53.7878C109.409 54.5557 109.887 55.616 109.921 56.7356C109.955 57.8553 109.543 58.9427 108.776 59.7588L67.606 103.532C67.2183 103.945 66.7516 104.276 66.2335 104.505C65.7154 104.734 65.1565 104.857 64.59 104.866C64.0236 104.875 63.4612 104.769 62.9362 104.557C62.4112 104.344 61.9344 104.027 61.5342 103.626Z" fill="white"/>
</svg>
