<svg width="32" height="32" viewBox="0 0 32 32" fill="none" xmlns="http://www.w3.org/2000/svg">
<path d="M0 8C0 3.58172 3.58172 0 8 0H24C28.4183 0 32 3.58172 32 8V24C32 28.4183 28.4183 32 24 32H8C3.58172 32 0 28.4183 0 24V8Z" fill="#F0FDF4"/>
<path d="M16.898 22.65C18.3008 20.8945 21.5 16.6398 21.5 14.25C21.5 11.3516 19.1484 9 16.25 9C13.3516 9 11 11.3516 11 14.25C11 16.6398 14.1992 20.8945 15.602 22.65C15.9383 23.0684 16.5617 23.0684 16.898 22.65ZM16.25 12.5C16.7141 12.5 17.1592 12.6844 17.4874 13.0126C17.8156 13.3408 18 13.7859 18 14.25C18 14.7141 17.8156 15.1592 17.4874 15.4874C17.1592 15.8156 16.7141 16 16.25 16C15.7859 16 15.3408 15.8156 15.0126 15.4874C14.6844 15.1592 14.5 14.7141 14.5 14.25C14.5 13.7859 14.6844 13.3408 15.0126 13.0126C15.3408 12.6844 15.7859 12.5 16.25 12.5Z" fill="#16A34A"/>
</svg>
