<svg width="32" height="32" viewBox="0 0 32 32" fill="none" xmlns="http://www.w3.org/2000/svg">
<path d="M24 0C28.4183 0 32 3.58172 32 8V24C32 28.4183 28.4183 32 24 32H8C3.58172 32 0 28.4183 0 24V8C0 3.58172 3.58172 0 8 0H24Z" fill="#F0FDF4"/>
<path d="M24 0C28.4183 0 32 3.58172 32 8V24C32 28.4183 28.4183 32 24 32H8C3.58172 32 0 28.4183 0 24V8C0 3.58172 3.58172 0 8 0H24Z" stroke="#E5E7EB"/>
<path d="M21.25 26H10.75V6H21.25V26Z" stroke="#E5E7EB"/>
<g clip-path="url(#clip0_425_1775)">
<path d="M16.648 22.4C18.0508 20.6445 21.25 16.3898 21.25 14C21.25 11.1016 18.8984 8.75 16 8.75C13.1016 8.75 10.75 11.1016 10.75 14C10.75 16.3898 13.9492 20.6445 15.352 22.4C15.6883 22.8184 16.3117 22.8184 16.648 22.4ZM16 12.25C16.4641 12.25 16.9092 12.4344 17.2374 12.7626C17.5656 13.0908 17.75 13.5359 17.75 14C17.75 14.4641 17.5656 14.9092 17.2374 15.2374C16.9092 15.5656 16.4641 15.75 16 15.75C15.5359 15.75 15.0908 15.5656 14.7626 15.2374C14.4344 14.9092 14.25 14.4641 14.25 14C14.25 13.5359 14.4344 13.0908 14.7626 12.7626C15.0908 12.4344 15.5359 12.25 16 12.25Z" fill="#16A34A"/>
</g>
<defs>
<clipPath id="clip0_425_1775">
<path d="M10.75 8.75H21.25V22.75H10.75V8.75Z" fill="white"/>
</clipPath>
</defs>
</svg>
