<svg width="48" height="48" viewBox="0 0 48 48" fill="none" xmlns="http://www.w3.org/2000/svg">
<path d="M36 0C42.6274 0 48 5.37258 48 12V36C48 42.6274 42.6274 48 36 48H12C5.37258 48 0 42.6274 0 36V12C0 5.37258 5.37258 0 12 0H36Z" fill="#F59E0B" fill-opacity="0.1"/>
<path d="M36 0C42.6274 0 48 5.37258 48 12V36C48 42.6274 42.6274 48 36 48H12C5.37258 48 0 42.6274 0 36V12C0 5.37258 5.37258 0 12 0H36Z" stroke="#E5E7EB"/>
<path d="M34 38H14V10H34V38Z" stroke="#E5E7EB"/>
<g clip-path="url(#clip0_921_90)">
<path d="M24 13.5C26.6522 13.5 29.1957 14.5536 31.0711 16.4289C32.9464 18.3043 34 20.8478 34 23.5C34 26.1522 32.9464 28.6957 31.0711 30.5711C29.1957 32.4464 26.6522 33.5 24 33.5C21.3478 33.5 18.8043 32.4464 16.9289 30.5711C15.0536 28.6957 14 26.1522 14 23.5C14 20.8478 15.0536 18.3043 16.9289 16.4289C18.8043 14.5536 21.3478 13.5 24 13.5ZM23.0625 18.1875V23.5C23.0625 23.8125 23.2188 24.1055 23.4805 24.2812L27.2305 26.7812C27.6602 27.0703 28.2422 26.9531 28.5312 26.5195C28.8203 26.0859 28.7031 25.5078 28.2695 25.2188L24.9375 23V18.1875C24.9375 17.668 24.5195 17.25 24 17.25C23.4805 17.25 23.0625 17.668 23.0625 18.1875Z" fill="#F59E0B"/>
</g>
<defs>
<clipPath id="clip0_921_90">
<path d="M14 13.5H34V33.5H14V13.5Z" fill="white"/>
</clipPath>
</defs>
</svg>
