<svg width="48" height="48" viewBox="0 0 48 48" fill="none" xmlns="http://www.w3.org/2000/svg">
<path d="M36 0C42.6274 0 48 5.37258 48 12V36C48 42.6274 42.6274 48 36 48H12C5.37258 48 0 42.6274 0 36V12C0 5.37258 5.37258 0 12 0H36Z" fill="#F59E0B" fill-opacity="0.1"/>
<path d="M36 0C42.6274 0 48 5.37258 48 12V36C48 42.6274 42.6274 48 36 48H12C5.37258 48 0 42.6274 0 36V12C0 5.37258 5.37258 0 12 0H36Z" stroke="#E5E7EB"/>
<path d="M24 14C26.6522 14 29.1957 15.0536 31.0711 16.9289C32.9464 18.8043 34 21.3478 34 24C34 26.6522 32.9464 29.1957 31.0711 31.0711C29.1957 32.9464 26.6522 34 24 34C21.3478 34 18.8043 32.9464 16.9289 31.0711C15.0536 29.1957 14 26.6522 14 24C14 21.3478 15.0536 18.8043 16.9289 16.9289C18.8043 15.0536 21.3478 14 24 14ZM23.0625 18.6875V24C23.0625 24.3125 23.2188 24.6055 23.4805 24.7812L27.2305 27.2812C27.6602 27.5703 28.2422 27.4531 28.5312 27.0195C28.8203 26.5859 28.7031 26.0078 28.2695 25.7188L24.9375 23.5V18.6875C24.9375 18.168 24.5195 17.75 24 17.75C23.4805 17.75 23.0625 18.168 23.0625 18.6875Z" fill="#F59E0B"/>
</svg>
