<svg width="18" height="16" viewBox="0 0 18 16" fill="none" xmlns="http://www.w3.org/2000/svg">
<path d="M1.125 0C1.74727 0 2.25 0.502734 2.25 1.125V12.9375C2.25 13.2469 2.50312 13.5 2.8125 13.5H16.875C17.4973 13.5 18 14.0027 18 14.625C18 15.2473 17.4973 15.75 16.875 15.75H2.8125C1.25859 15.75 0 14.4914 0 12.9375V1.125C0 0.502734 0.502734 0 1.125 0ZM4.5 3.375C4.5 2.75273 5.00273 2.25 5.625 2.25H12.375C12.9973 2.25 13.5 2.75273 13.5 3.375C13.5 3.99727 12.9973 4.5 12.375 4.5H5.625C5.00273 4.5 4.5 3.99727 4.5 3.375ZM5.625 5.625H10.125C10.7473 5.625 11.25 6.12773 11.25 6.75C11.25 7.37227 10.7473 7.875 10.125 7.875H5.625C5.00273 7.875 4.5 7.37227 4.5 6.75C4.5 6.12773 5.00273 5.625 5.625 5.625ZM5.625 9H14.625C15.2473 9 15.75 9.50273 15.75 10.125C15.75 10.7473 15.2473 11.25 14.625 11.25H5.625C5.00273 11.25 4.5 10.7473 4.5 10.125C4.5 9.50273 5.00273 9 5.625 9Z" fill="#9CA3AF"/>
</svg>
