<?xml version="1.0" encoding="UTF-8"?>
<svg version="1.1" xmlns="http://www.w3.org/2000/svg" width="512" height="512">
<path d="M0 0 C168.96 0 337.92 0 512 0 C512 168.96 512 337.92 512 512 C343.04 512 174.08 512 0 512 C0 343.04 0 174.08 0 0 Z " fill="#0033FF" transform="translate(0,0)"/>
<path d="M0 0 C0.712771 0.16363037 1.42554199 0.32726074 2.15991211 0.49584961 C4.27361058 1.02248086 6.35146619 1.62313631 8.4375 2.25 C10.01917472 2.70696502 11.60121828 3.16265495 13.18359375 3.6171875 C13.98394043 3.84889648 14.78428711 4.08060547 15.60888672 4.31933594 C19.39086569 5.3959295 23.1943526 6.38598012 27 7.375 C34.84274965 9.42367096 42.67321689 11.51616613 50.5 13.625 C51.57378906 13.9142334 52.64757812 14.2034668 53.75390625 14.50146484 C55.82832219 15.06087596 57.90129394 15.62567492 59.97265625 16.19628906 C62.01206206 16.73771841 64.0624921 17.23902748 66.12109375 17.70214844 C67.10207031 17.93192383 68.08304687 18.16169922 69.09375 18.3984375 C70.40375977 18.68340088 70.40375977 18.68340088 71.74023438 18.97412109 C74.85063626 20.38616827 75.63337118 21.90604693 77 25 C78.10817291 33.06369515 76.51364168 41.13136009 74.8125 49 C74.58618896 50.0823291 74.35987793 51.1646582 74.12670898 52.27978516 C71.1159175 66.46919592 67.63794435 80.41438946 63.15820312 94.21289062 C61.63909879 98.90297881 60.27963226 103.59489511 59.0625 108.375 C56.98675554 116.40005389 54.32071864 124.20238256 51.6640625 132.05078125 C50.00400566 136.95954149 48.45553293 141.89624935 46.953125 146.85546875 C45.86316605 150.45143987 44.74696259 154.03892215 43.625 157.625 C43.41657471 158.29144531 43.20814941 158.95789063 42.9934082 159.64453125 C40.59869999 167.29311159 38.18245229 174.93489214 35.76611328 182.57666016 C35.00899731 184.97154007 34.25242407 187.36659062 33.49609375 189.76171875 C33.12556885 190.93492676 33.12556885 190.93492676 32.74755859 192.13183594 C32.2488124 193.71179611 31.75044054 195.2918745 31.25244141 196.87207031 C29.99938903 200.84619989 28.73927645 204.81782703 27.46484375 208.78515625 C24.26122493 218.78702165 21.31804467 228.83181758 18.55712891 238.96435547 C15.25258947 251.0385228 11.61840576 263.01720338 8 275 C9.03833984 274.38294189 9.03833984 274.38294189 10.09765625 273.75341797 C31.74801637 260.89227683 53.47654555 248.17362609 75.29589844 235.60083008 C85.48952056 229.72439063 95.65700331 223.80400365 105.81298828 217.86279297 C108.60010185 216.23373854 111.38886008 214.60754048 114.17831421 212.98249817 C131.57107599 202.84694579 148.82751946 192.50455914 166 182 C167.1334642 185.40039261 166.841555 186.41977974 165.92578125 189.796875 C165.67256104 190.74731689 165.41934082 191.69775879 165.15844727 192.67700195 C164.73970337 194.19813599 164.73970337 194.19813599 164.3125 195.75 C164.03140381 196.79696045 163.75030762 197.8439209 163.46069336 198.92260742 C162.8984752 201.01427826 162.33286589 203.10504089 161.76367188 205.19482422 C161.15199431 207.4416833 160.54768138 209.68997896 159.953125 211.94140625 C159.17607518 214.88260799 158.39058673 217.82140119 157.60107422 220.75927734 C156.86823859 223.49118854 156.13945735 226.2241744 155.41015625 228.95703125 C152.38933599 240.25234526 149.31247981 251.5259455 146.07006836 262.75976562 C144.2130525 269.20600212 142.45940477 275.67417418 140.76171875 282.1640625 C139.23906402 287.8330232 139.23906402 287.8330232 136.57348633 289.69482422 C134.96896606 290.61545654 134.96896606 290.61545654 133.33203125 291.5546875 C132.74959656 291.8924118 132.16716187 292.23013611 131.56707764 292.57809448 C129.65352984 293.6853409 127.73307765 294.78000063 125.8125 295.875 C124.48177804 296.64258041 123.15162247 297.41114354 121.82202148 298.18066406 C119.14182649 299.73106805 116.45945857 301.27760051 113.77539062 302.82128906 C108.67995095 305.75618283 103.61956749 308.74959446 98.5625 311.75 C96.79306072 312.79703045 95.02353006 313.84390648 93.25390625 314.890625 C92.39039551 315.40173828 91.52688477 315.91285156 90.63720703 316.43945312 C85.17083134 319.67413868 79.70156953 322.90394304 74.23291016 326.13476562 C69.73641135 328.79146225 65.24049547 331.449132 60.74609375 334.109375 C58.97661724 335.15634252 57.20708547 336.20321665 55.4375 337.25 C54.1076709 338.03673096 54.1076709 338.03673096 52.75097656 338.83935547 C47.44203022 341.97663025 42.12495172 345.09959993 36.80078125 348.2109375 C36.1817543 348.57297272 35.56272736 348.93500793 34.92494202 349.30801392 C31.78745696 351.14286667 28.648567 352.97522953 25.50708008 354.80322266 C20.07955656 357.96849436 14.68340638 361.16156939 9.3984375 364.5625 C8.57827148 365.08634277 7.75810547 365.61018555 6.91308594 366.14990234 C5.44432063 367.09679521 3.98553098 368.05944956 2.54003906 369.04150391 C-0.51890082 371.01016673 -2.55544585 372.00538201 -6.2265625 371.9609375 C-7.47179687 371.64382813 -8.71703125 371.32671875 -10 371 C-10.84618896 370.79769775 -11.69237793 370.59539551 -12.56420898 370.38696289 C-15.71851295 369.62413659 -18.85851984 368.81398859 -22 368 C-24.49862368 367.36559295 -26.99732504 366.73149182 -29.49609375 366.09765625 C-31.47625971 365.59128558 -33.45608888 365.0836203 -35.43579102 364.57543945 C-36.7681537 364.2340205 -38.10083616 363.89384697 -39.43383789 363.55493164 C-47.33015744 361.54670315 -55.14040884 359.37134699 -62.91674805 356.93139648 C-66.85049973 355.74307891 -70.81545949 354.74816094 -74.80761719 353.77734375 C-80.41852943 352.41108919 -86.00809183 350.95997188 -91.60058594 349.52050781 C-92.95355428 349.17263896 -94.30674603 348.82563789 -95.66015625 348.47949219 C-103.48955144 346.47688677 -111.28584781 344.41510368 -119 342 C-116.83774067 334.70931757 -114.58917766 327.44700219 -112.3125 320.19140625 C-111.47245023 317.51374761 -110.63877195 314.83428479 -109.8125 312.15234375 C-107.77633779 305.5603002 -105.67310442 298.99939234 -103.45996094 292.46435547 C-100.44163717 283.54568495 -97.67448165 274.59612859 -95.12915039 265.53125 C-91.84636724 253.8435329 -88.17253224 242.29747822 -84.23046875 230.81567383 C-82.73966287 226.41934941 -81.41618896 221.99387853 -80.15820312 217.52514648 C-78.18797392 210.6017106 -76.09116966 203.72495494 -73.94140625 196.85546875 C-73.35270091 194.96606755 -72.76400151 193.07666449 -72.17551899 191.18719387 C-71.55050104 189.18095201 -70.92483763 187.17491217 -70.2991333 185.16888428 C-66.86671696 174.15957868 -63.45750244 163.14303037 -60.0476284 152.12672615 C-58.85922164 148.28753587 -57.66965244 144.44871261 -56.4777832 140.6105957 C-55.29785575 136.81079329 -54.12064129 133.01016051 -52.94537544 129.2089138 C-52.50258209 127.77843264 -52.05881058 126.34825387 -51.61402702 124.91839027 C-51.00171349 122.94940073 -50.39288322 120.97936713 -49.78491211 119.0090332 C-49.43899521 117.89293167 -49.09307831 116.77683014 -48.73667908 115.62690735 C-47.90999364 113.13375638 -47.90999364 113.13375638 -48 111 C-63.86944808 120.01966543 -79.68881536 129.10901552 -95.37744141 138.44091797 C-99.76818901 141.05116878 -104.16510976 143.65095981 -108.5625 146.25 C-109.45388672 146.7769043 -110.34527344 147.30380859 -111.26367188 147.84667969 C-125.89347642 156.48782566 -140.55123229 165.0825966 -155.234375 173.6328125 C-156.70632324 174.49024048 -156.70632324 174.49024048 -158.20800781 175.36499023 C-160.13869783 176.48853289 -162.07032601 177.6104651 -164.00292969 178.73071289 C-168.83411227 181.53834011 -173.64208609 184.37803991 -178.41287231 187.28691101 C-180.87873629 188.78997922 -183.35001534 190.2840366 -185.82122803 191.77828979 C-187.01158147 192.5020358 -188.19904132 193.23056529 -189.38336182 193.96414185 C-191.03219764 194.98526009 -192.69170613 195.98908287 -194.3515625 196.9921875 C-195.77202881 197.86399658 -195.77202881 197.86399658 -197.22119141 198.75341797 C-200.42811155 200.19205215 -202.52116361 200.38414025 -206 200 C-206.99 199.34 -207.98 198.68 -209 198 C-208.55110861 191.37885201 -207.0691347 185.62178915 -205.0390625 179.3125 C-203.45566918 174.26468972 -202.23819881 169.14135342 -201 164 C-198.66989161 154.36326215 -196.15982715 144.81205386 -193.34570312 135.3046875 C-191.93318686 130.48180318 -190.67362886 125.66764939 -189.59765625 120.7578125 C-189.36095215 119.72406494 -189.12424805 118.69031738 -188.88037109 117.62524414 C-188.43038343 115.63613375 -188.00842283 113.64039885 -187.61962891 111.63842773 C-186.49518392 106.78372885 -185.41781194 103.75971374 -181.2265625 100.890625 C-179.49761295 99.90352659 -177.75348567 98.94282438 -176 98 C-174.3144821 96.99190192 -172.62923063 95.98332717 -170.9488678 94.96665955 C-168.39310543 93.42606006 -165.82063986 91.91440055 -163.2487793 90.40087891 C-159.67657056 88.29808637 -156.10960253 86.18644962 -152.54296875 84.07421875 C-151.81955292 83.64587738 -151.09613708 83.21753601 -150.35079956 82.7762146 C-143.53578025 78.73532369 -136.7638207 74.62584265 -130 70.5 C-119.89865974 64.34016878 -109.74579269 58.2733233 -99.5625 52.25 C-90.71863283 47.01877467 -81.9031563 41.75593249 -73.1875 36.3125 C-62.64037807 29.72943917 -51.96333584 23.37569304 -41.23400879 17.09448242 C-37.67551922 15.0049057 -34.14628194 12.87325808 -30.63331604 10.70806885 C-28.87297571 9.62643847 -27.10623518 8.55620632 -25.33666992 7.48974609 C-23.12938651 6.15710052 -20.93337914 4.80552937 -18.7512207 3.43212891 C-12.02585143 -0.57919129 -7.64574287 -1.92846098 0 0 Z " fill="#FEFEFF" transform="translate(271,70)"/>
</svg>
