<svg width="16" height="18" viewBox="0 0 16 18" fill="none" xmlns="http://www.w3.org/2000/svg">
<g clip-path="url(#clip0_20_206)">
<path d="M7.875 0C7.25273 0 6.75 0.502734 6.75 1.125V1.8C4.18359 2.32031 2.25 4.59141 2.25 7.3125V7.97344C2.25 9.62578 1.6418 11.2219 0.54492 12.4594L0.284764 12.7512C-0.0105484 13.0816 -0.080861 13.5563 0.0984359 13.9605C0.277733 14.3648 0.68203 14.625 1.125 14.625H14.625C15.068 14.625 15.4687 14.3648 15.6516 13.9605C15.8344 13.5563 15.7605 13.0816 15.4652 12.7512L15.2051 12.4594C14.1082 11.2219 13.5 9.6293 13.5 7.97344V7.3125C13.5 4.59141 11.5664 2.32031 9 1.8V1.125C9 0.502734 8.49726 0 7.875 0ZM9.46758 17.3426C9.88945 16.9207 10.125 16.3477 10.125 15.75H7.875H5.625C5.625 16.3477 5.86055 16.9207 6.28242 17.3426C6.7043 17.7645 7.27734 18 7.875 18C8.47265 18 9.0457 17.7645 9.46758 17.3426Z" fill="white"/>
</g>
<defs>
<clipPath id="clip0_20_206">
<path d="M0 0H15.75V18H0V0Z" fill="white"/>
</clipPath>
</defs>
</svg>
