<svg width="38" height="38" viewBox="0 0 38 38" fill="none" xmlns="http://www.w3.org/2000/svg">
<rect width="38" height="38" rx="19" fill="#DBEAFE"/>
<g clip-path="url(#clip0_934_200)">
<path d="M11.25 11.125C10.009 11.125 9 12.134 9 13.375V14.5H29.25V13.375C29.25 12.134 28.241 11.125 27 11.125H11.25ZM29.25 17.875H9V24.625C9 25.866 10.009 26.875 11.25 26.875H27C28.241 26.875 29.25 25.866 29.25 24.625V17.875ZM12.9375 22.375H15.1875C15.4969 22.375 15.75 22.6281 15.75 22.9375C15.75 23.2469 15.4969 23.5 15.1875 23.5H12.9375C12.6281 23.5 12.375 23.2469 12.375 22.9375C12.375 22.6281 12.6281 22.375 12.9375 22.375ZM16.875 22.9375C16.875 22.6281 17.1281 22.375 17.4375 22.375H21.9375C22.2469 22.375 22.5 22.6281 22.5 22.9375C22.5 23.2469 22.2469 23.5 21.9375 23.5H17.4375C17.1281 23.5 16.875 23.2469 16.875 22.9375Z" fill="#2563EB"/>
</g>
<defs>
<clipPath id="clip0_934_200">
<path d="M9 10H29.25V28H9V10Z" fill="white"/>
</clipPath>
</defs>
</svg>
