<svg width="32" height="32" viewBox="0 0 32 32" fill="none" xmlns="http://www.w3.org/2000/svg">
<path d="M0 8C0 3.58172 3.58172 0 8 0H24C28.4183 0 32 3.58172 32 8V24C32 28.4183 28.4183 32 24 32H8C3.58172 32 0 28.4183 0 24V8Z" fill="#FFF7ED"/>
<path d="M13.509 9.67327C13.2984 9.16468 12.7434 8.89398 12.2129 9.0389L9.80664 9.69515C9.33086 9.8264 9 10.2584 9 10.7506C9 17.5155 14.4852 23.0006 21.25 23.0006C21.7422 23.0006 22.1742 22.6698 22.3055 22.194L22.9617 19.7877C23.1066 19.2573 22.8359 18.7022 22.3273 18.4916L19.7023 17.3979C19.2566 17.2119 18.7398 17.3405 18.4363 17.7151L17.3316 19.0631C15.4066 18.1526 13.848 16.594 12.9375 14.669L14.2855 13.567C14.6602 13.2608 14.7887 12.7467 14.6027 12.301L13.509 9.67601V9.67327Z" fill="#EA580C"/>
</svg>
