<svg width="32" height="32" viewBox="0 0 32 32" fill="none" xmlns="http://www.w3.org/2000/svg">
<path d="M24 0C28.4183 0 32 3.58172 32 8V24C32 28.4183 28.4183 32 24 32H8C3.58172 32 0 28.4183 0 24V8C0 3.58172 3.58172 0 8 0H24Z" fill="#FFF7ED"/>
<path d="M24 0C28.4183 0 32 3.58172 32 8V24C32 28.4183 28.4183 32 24 32H8C3.58172 32 0 28.4183 0 24V8C0 3.58172 3.58172 0 8 0H24Z" stroke="#E5E7EB"/>
<path d="M23 26H9V6H23V26Z" stroke="#E5E7EB"/>
<g clip-path="url(#clip0_425_1784)">
<path d="M13.509 9.42266C13.2984 8.91407 12.7434 8.64337 12.2129 8.78829L9.80664 9.44454C9.33086 9.57579 9 10.0078 9 10.5C9 17.2648 14.4852 22.75 21.25 22.75C21.7422 22.75 22.1742 22.4191 22.3055 21.9434L22.9617 19.5371C23.1066 19.0066 22.8359 18.4516 22.3273 18.241L19.7023 17.1473C19.2566 16.9613 18.7398 17.0899 18.4363 17.4645L17.3316 18.8125C15.4066 17.902 13.848 16.3434 12.9375 14.4184L14.2855 13.3164C14.6602 13.0102 14.7887 12.4961 14.6027 12.0504L13.509 9.4254V9.42266Z" fill="#EA580C"/>
</g>
<defs>
<clipPath id="clip0_425_1784">
<path d="M9 8.75H23V22.75H9V8.75Z" fill="white"/>
</clipPath>
</defs>
</svg>
