<svg width="49" height="49" viewBox="0 0 49 49" fill="none" xmlns="http://www.w3.org/2000/svg">
<path d="M24.4805 0C38.0002 0.000253576 48.96 10.9607 48.96 24.4805C48.9597 38 38 48.9597 24.4805 48.96C10.9607 48.96 0.000247406 38.0002 0 24.4805C0 10.9605 10.9605 0 24.4805 0Z" fill="white" fill-opacity="0.2"/>
<path d="M24.4805 0C38.0002 0.000253576 48.96 10.9607 48.96 24.4805C48.9597 38 38 48.9597 24.4805 48.96C10.9607 48.96 0.000247406 38.0002 0 24.4805C0 10.9605 10.9605 0 24.4805 0Z" stroke="#E5E7EB"/>
<path d="M30.6002 36.7205H18.36V12.24H30.6002V36.7205Z" stroke="#E5E7EB"/>
<g clip-path="url(#clip0_426_2014)">
<path d="M20.6869 17.5631C20.2151 17.273 19.6222 17.2635 19.1409 17.5344C18.6596 17.8053 18.36 18.3153 18.36 18.87V30.09C18.36 30.6446 18.6596 31.1546 19.1409 31.4255C19.6222 31.6965 20.2151 31.6837 20.6869 31.3968L29.8669 25.7868C30.3227 25.5095 30.6 25.0155 30.6 24.48C30.6 23.9445 30.3227 23.4536 29.8669 23.1731L20.6869 17.5631Z" fill="white"/>
</g>
<defs>
<clipPath id="clip0_426_2014">
<path d="M18.36 16.3199H30.6V32.6399H18.36V16.3199Z" fill="white"/>
</clipPath>
</defs>
</svg>
