<svg width="12" height="16" viewBox="0 0 12 16" fill="none" xmlns="http://www.w3.org/2000/svg">
<path d="M0.4375 0.0682255C0.703125 -0.0536495 1.01562 -0.0098995 1.2375 0.180725L2.5 1.26198L3.7625 0.180725C4.04375 -0.0598995 4.45938 -0.0598995 4.7375 0.180725L6 1.26198L7.2625 0.180725C7.54375 -0.0598995 7.95938 -0.0598995 8.2375 0.180725L9.5 1.26198L10.7625 0.180725C10.9844 -0.0098995 11.2969 -0.0536495 11.5625 0.0682255C11.8281 0.190101 12 0.455725 12 0.749475V15.2495C12 15.5432 11.8281 15.8089 11.5625 15.9307C11.2969 16.0526 10.9844 16.0089 10.7625 15.8182L9.5 14.737L8.2375 15.8182C7.95625 16.0589 7.54062 16.0589 7.2625 15.8182L6 14.737L4.7375 15.8182C4.45625 16.0589 4.04063 16.0589 3.7625 15.8182L2.5 14.737L1.2375 15.8182C1.01562 16.0089 0.703125 16.0526 0.4375 15.9307C0.171875 15.8089 0 15.5432 0 15.2495V0.749475C0 0.455725 0.171875 0.190101 0.4375 0.0682255ZM3 4.49948C2.725 4.49948 2.5 4.72448 2.5 4.99948C2.5 5.27448 2.725 5.49948 3 5.49948H9C9.275 5.49948 9.5 5.27448 9.5 4.99948C9.5 4.72448 9.275 4.49948 9 4.49948H3ZM2.5 10.9995C2.5 11.2745 2.725 11.4995 3 11.4995H9C9.275 11.4995 9.5 11.2745 9.5 10.9995C9.5 10.7245 9.275 10.4995 9 10.4995H3C2.725 10.4995 2.5 10.7245 2.5 10.9995ZM3 7.49948C2.725 7.49948 2.5 7.72448 2.5 7.99948C2.5 8.27448 2.725 8.49948 3 8.49948H9C9.275 8.49948 9.5 8.27448 9.5 7.99948C9.5 7.72448 9.275 7.49948 9 7.49948H3Z" fill="#3B82F6"/>
</svg>
