<svg width="21" height="21" viewBox="0 0 21 21" fill="none" xmlns="http://www.w3.org/2000/svg">
<path d="M0 2.25C0 1.00781 1.00781 0 2.25 0H6.75C7.99219 0 9 1.00781 9 2.25V6.75C9 7.99219 7.99219 9 6.75 9H2.25C1.00781 9 0 7.99219 0 6.75V2.25ZM3 3V6H6V3H3ZM0 14.25C0 13.0078 1.00781 12 2.25 12H6.75C7.99219 12 9 13.0078 9 14.25V18.75C9 19.9922 7.99219 21 6.75 21H2.25C1.00781 21 0 19.9922 0 18.75V14.25ZM3 15V18H6V15H3ZM14.25 0H18.75C19.9922 0 21 1.00781 21 2.25V6.75C21 7.99219 19.9922 9 18.75 9H14.25C13.0078 9 12 7.99219 12 6.75V2.25C12 1.00781 13.0078 0 14.25 0ZM18 3H15V6H18V3ZM12 12.75C12 12.3375 12.3375 12 12.75 12H15.75C16.1625 12 16.5 12.3375 16.5 12.75C16.5 13.1625 16.8375 13.5 17.25 13.5H18.75C19.1625 13.5 19.5 13.1625 19.5 12.75C19.5 12.3375 19.8375 12 20.25 12C20.6625 12 21 12.3375 21 12.75V17.25C21 17.6625 20.6625 18 20.25 18H17.25C16.8375 18 16.5 17.6625 16.5 17.25C16.5 16.8375 16.1625 16.5 15.75 16.5C15.3375 16.5 15 16.8375 15 17.25V20.25C15 20.6625 14.6625 21 14.25 21H12.75C12.3375 21 12 20.6625 12 20.25V12.75ZM17.25 21C17.0511 21 16.8603 20.921 16.7197 20.7803C16.579 20.6397 16.5 20.4489 16.5 20.25C16.5 20.0511 16.579 19.8603 16.7197 19.7197C16.8603 19.579 17.0511 19.5 17.25 19.5C17.4489 19.5 17.6397 19.579 17.7803 19.7197C17.921 19.8603 18 20.0511 18 20.25C18 20.4489 17.921 20.6397 17.7803 20.7803C17.6397 20.921 17.4489 21 17.25 21ZM20.25 21C20.0511 21 19.8603 20.921 19.7197 20.7803C19.579 20.6397 19.5 20.4489 19.5 20.25C19.5 20.0511 19.579 19.8603 19.7197 19.7197C19.8603 19.579 20.0511 19.5 20.25 19.5C20.4489 19.5 20.6397 19.579 20.7803 19.7197C20.921 19.8603 21 20.0511 21 20.25C21 20.4489 20.921 20.6397 20.7803 20.7803C20.6397 20.921 20.4489 21 20.25 21Z" fill="white"/>
</svg>
