<svg width="14" height="14" viewBox="0 0 14 14" fill="none" xmlns="http://www.w3.org/2000/svg">
<path d="M0 1.5C0 0.671875 0.671875 0 1.5 0H4.5C5.32812 0 6 0.671875 6 1.5V4.5C6 5.32812 5.32812 6 4.5 6H1.5C0.671875 6 0 5.32812 0 4.5V1.5ZM2 2V4H4V2H2ZM0 9.5C0 8.67188 0.671875 8 1.5 8H4.5C5.32812 8 6 8.67188 6 9.5V12.5C6 13.3281 5.32812 14 4.5 14H1.5C0.671875 14 0 13.3281 0 12.5V9.5ZM2 10V12H4V10H2ZM9.5 0H12.5C13.3281 0 14 0.671875 14 1.5V4.5C14 5.32812 13.3281 6 12.5 6H9.5C8.67188 6 8 5.32812 8 4.5V1.5C8 0.671875 8.67188 0 9.5 0ZM12 2H10V4H12V2ZM8 8.5C8 8.225 8.225 8 8.5 8H10.5C10.775 8 11 8.225 11 8.5C11 8.775 11.225 9 11.5 9H12.5C12.775 9 13 8.775 13 8.5C13 8.225 13.225 8 13.5 8C13.775 8 14 8.225 14 8.5V11.5C14 11.775 13.775 12 13.5 12H11.5C11.225 12 11 11.775 11 11.5C11 11.225 10.775 11 10.5 11C10.225 11 10 11.225 10 11.5V13.5C10 13.775 9.775 14 9.5 14H8.5C8.225 14 8 13.775 8 13.5V8.5ZM11.5 14C11.3674 14 11.2402 13.9473 11.1464 13.8536C11.0527 13.7598 11 13.6326 11 13.5C11 13.3674 11.0527 13.2402 11.1464 13.1464C11.2402 13.0527 11.3674 13 11.5 13C11.6326 13 11.7598 13.0527 11.8536 13.1464C11.9473 13.2402 12 13.3674 12 13.5C12 13.6326 11.9473 13.7598 11.8536 13.8536C11.7598 13.9473 11.6326 14 11.5 14ZM13.5 14C13.3674 14 13.2402 13.9473 13.1464 13.8536C13.0527 13.7598 13 13.6326 13 13.5C13 13.3674 13.0527 13.2402 13.1464 13.1464C13.2402 13.0527 13.3674 13 13.5 13C13.6326 13 13.7598 13.0527 13.8536 13.1464C13.9473 13.2402 14 13.3674 14 13.5C14 13.6326 13.9473 13.7598 13.8536 13.8536C13.7598 13.9473 13.6326 14 13.5 14Z" fill="#9CA3AF"/>
</svg>
