<svg width="35" height="35" viewBox="0 0 35 35" fill="none" xmlns="http://www.w3.org/2000/svg">
<path d="M22.4052 0.221228L0.221188 22.4053C0.0990293 22.5274 0.0990293 22.7255 0.221188 22.8477L12.1524 34.7788C12.2745 34.901 12.4726 34.901 12.5948 34.7788L34.7788 12.5948C34.901 12.4726 34.901 12.2746 34.7788 12.1524L22.8476 0.221228C22.7255 0.0990688 22.5274 0.0990691 22.4052 0.221228Z" fill="url(#paint0_linear_1189_44)"/>
<path d="M22.6302 2.64758L32.3524 12.3698L12.3774 32.3448L2.6552 22.6226L22.6302 2.64758Z" fill="url(#paint1_linear_1189_44)"/>
<path d="M24.6257 6.41184L28.8951 10.6812C28.7003 10.7735 28.5191 10.9011 28.3596 11.0653C27.6769 11.7663 27.6525 12.897 28.3067 13.6245C28.3841 13.7106 28.4675 13.788 28.5557 13.8566C28.7193 13.9835 28.739 14.2223 28.5931 14.3682L14.3728 28.5885C14.2262 28.7351 13.988 28.7148 13.8611 28.5512C13.7926 28.463 13.7152 28.3795 13.629 28.3021C12.9015 27.6479 11.7702 27.673 11.0698 28.3551C11.004 28.4195 10.9436 28.4874 10.8893 28.558C10.7658 28.7188 10.5269 28.7317 10.3837 28.5878L6.41707 24.6212C6.2732 24.4773 6.28609 24.2391 6.44693 24.1156C6.51751 24.0613 6.58537 24.0009 6.64984 23.9351C7.33256 23.2347 7.35699 22.1034 6.70278 21.3759C6.62541 21.2897 6.54194 21.2124 6.45371 21.1438C6.29016 21.0169 6.27048 20.778 6.41639 20.6321L20.636 6.41184C20.7826 6.26525 21.0208 6.28561 21.1477 6.44917C21.2162 6.53739 21.2936 6.62019 21.3798 6.69823C22.1073 7.35244 23.2386 7.32801 23.9389 6.6453C24.0048 6.58082 24.0652 6.51296 24.1195 6.44238C24.243 6.28154 24.4819 6.26865 24.6251 6.41252L24.6257 6.41184Z" fill="url(#paint2_linear_1189_44)"/>
<path d="M17.504 22.1883C20.0932 22.1883 22.1921 20.0893 22.1921 17.5002C22.1921 14.9111 20.0932 12.8121 17.504 12.8121C14.9149 12.8121 12.816 14.9111 12.816 17.5002C12.816 20.0893 14.9149 22.1883 17.504 22.1883Z" fill="url(#paint3_linear_1189_44)"/>
<path d="M23.7143 12.8535C24.5775 12.8535 25.2772 12.1537 25.2772 11.2906C25.2772 10.4274 24.5775 9.72766 23.7143 9.72766C22.8511 9.72766 22.1514 10.4274 22.1514 11.2906C22.1514 12.1537 22.8511 12.8535 23.7143 12.8535Z" fill="url(#paint4_linear_1189_44)"/>
<path d="M11.2945 25.2734C12.1576 25.2734 12.8574 24.5737 12.8574 23.7105C12.8574 22.8473 12.1576 22.1476 11.2945 22.1476C10.4313 22.1476 9.73154 22.8473 9.73154 23.7105C9.73154 24.5737 10.4313 25.2734 11.2945 25.2734Z" fill="url(#paint5_linear_1189_44)"/>
<path d="M34.538 7.99915H0.47012C0.282718 7.99915 0.130798 8.15106 0.130798 8.33847V26.6618C0.130798 26.8492 0.282718 27.0011 0.47012 27.0011H34.538C34.7254 27.0011 34.8773 26.8492 34.8773 26.6618V8.33847C34.8773 8.15106 34.7254 7.99915 34.538 7.99915Z" fill="url(#paint6_linear_1189_44)"/>
<path d="M32.8414 10.0352V24.9653H2.16672V10.0352H32.8414Z" fill="url(#paint7_linear_1189_44)"/>
<path d="M31.4841 14.4219V20.5786C31.4841 20.7869 31.2988 20.943 31.0925 20.9138C30.9765 20.8975 30.857 20.8907 30.7355 20.8948C29.6904 20.9294 28.8286 21.773 28.7729 22.8167C28.7654 22.9545 28.7716 23.0889 28.7906 23.2198C28.8197 23.4248 28.6623 23.608 28.4553 23.608H6.55347C6.34649 23.608 6.18904 23.4248 6.21822 23.2198C6.23722 23.0889 6.24333 22.9538 6.23587 22.8167C6.18022 21.7723 5.31834 20.9294 4.27323 20.8948C4.15175 20.8907 4.03231 20.8975 3.91627 20.9138C3.70996 20.943 3.52469 20.7869 3.52469 20.5786V14.4219C3.52469 14.2136 3.70996 14.0575 3.91627 14.0867C4.03231 14.103 4.15175 14.1097 4.27323 14.1057C5.31834 14.0711 6.18022 13.2282 6.23587 12.1838C6.24333 12.046 6.23722 11.9109 6.21822 11.7806C6.18904 11.5757 6.34649 11.3925 6.55347 11.3925H28.4546C28.6616 11.3925 28.8191 11.5757 28.7899 11.7806C28.7716 11.9116 28.7648 12.046 28.7722 12.1838C28.8279 13.2282 29.6898 14.0711 30.7349 14.1057C30.8563 14.1097 30.9758 14.103 31.0918 14.0867C31.2981 14.0575 31.4834 14.2136 31.4834 14.4219H31.4841Z" fill="url(#paint8_linear_1189_44)"/>
<path d="M17.504 22.59C20.3151 22.59 22.5939 20.3113 22.5939 17.5002C22.5939 14.6892 20.3151 12.4104 17.504 12.4104C14.693 12.4104 12.4142 14.6892 12.4142 17.5002C12.4142 20.3113 14.693 22.59 17.504 22.59Z" fill="url(#paint9_linear_1189_44)"/>
<path d="M27.039 19.1968C27.976 19.1968 28.7356 18.4372 28.7356 17.5002C28.7356 16.5632 27.976 15.8036 27.039 15.8036C26.102 15.8036 25.3424 16.5632 25.3424 17.5002C25.3424 18.4372 26.102 19.1968 27.039 19.1968Z" fill="url(#paint10_linear_1189_44)"/>
<path d="M7.9691 19.1968C8.90611 19.1968 9.6657 18.4372 9.6657 17.5002C9.6657 16.5632 8.90611 15.8036 7.9691 15.8036C7.03209 15.8036 6.27249 16.5632 6.27249 17.5002C6.27249 18.4372 7.03209 19.1968 7.9691 19.1968Z" fill="url(#paint11_linear_1189_44)"/>
<path d="M19.6845 15.0455H18.676C18.822 15.279 18.9163 15.5423 18.959 15.8354H19.9526L19.6791 16.8839H18.9489C18.8729 17.3441 18.6964 17.72 18.4195 18.0119C18.1426 18.303 17.7497 18.5269 17.24 18.6824L19.257 21.1567V21.2313H17.3893L15.1091 18.5093L15.1044 17.5504H16.277C16.7507 17.5402 17.0568 17.3183 17.1959 16.8846H14.9605L15.234 15.8361H17.1566C17.0107 15.5212 16.7263 15.3577 16.3022 15.3441H14.9659L15.2835 13.9977H19.958L19.6845 15.0455Z" fill="url(#paint12_linear_1189_44)"/>
<defs>
<linearGradient id="paint0_linear_1189_44" x1="11.3116" y1="11.3116" x2="23.6835" y2="23.6836" gradientUnits="userSpaceOnUse">
<stop stop-color="#91C553"/>
<stop offset="1" stop-color="#60A113"/>
</linearGradient>
<linearGradient id="paint1_linear_1189_44" x1="12.641" y1="12.6334" x2="22.3617" y2="22.3541" gradientUnits="userSpaceOnUse">
<stop stop-color="#408336"/>
<stop offset="1" stop-color="#0A4B00"/>
</linearGradient>
<linearGradient id="paint2_linear_1189_44" x1="17.5045" y1="11.8717" x2="17.5045" y2="23.1211" gradientUnits="userSpaceOnUse">
<stop stop-color="#91C553"/>
<stop offset="1" stop-color="#60A113"/>
</linearGradient>
<linearGradient id="paint3_linear_1189_44" x1="12.8126" y1="17.5002" x2="22.1879" y2="17.5002" gradientUnits="userSpaceOnUse">
<stop stop-color="#408336"/>
<stop offset="1" stop-color="#0A4B00"/>
</linearGradient>
<linearGradient id="paint4_linear_1189_44" x1="15.9375" y1="8.71933" x2="19.063" y2="8.71933" gradientUnits="userSpaceOnUse">
<stop stop-color="#408336"/>
<stop offset="1" stop-color="#0A4B00"/>
</linearGradient>
<linearGradient id="paint5_linear_1189_44" x1="15.9375" y1="26.2811" x2="19.0629" y2="26.2811" gradientUnits="userSpaceOnUse">
<stop stop-color="#408336"/>
<stop offset="1" stop-color="#0A4B00"/>
</linearGradient>
<linearGradient id="paint6_linear_1189_44" x1="4.16601" y1="4.1621" x2="30.8421" y2="30.8382" gradientUnits="userSpaceOnUse">
<stop stop-color="#AEED64"/>
<stop offset="1" stop-color="#78C918"/>
</linearGradient>
<linearGradient id="paint7_linear_1189_44" x1="6.10285" y1="6.09903" x2="28.9052" y2="28.9014" gradientUnits="userSpaceOnUse">
<stop stop-color="#53AB46"/>
<stop offset="1" stop-color="#107300"/>
</linearGradient>
<linearGradient id="paint8_linear_1189_44" x1="8.90497" y1="8.90048" x2="26.1038" y2="26.0993" gradientUnits="userSpaceOnUse">
<stop stop-color="#AEED64"/>
<stop offset="1" stop-color="#78C918"/>
</linearGradient>
<linearGradient id="paint9_linear_1189_44" x1="13.9052" y1="21.0991" x2="21.1029" y2="13.9014" gradientUnits="userSpaceOnUse">
<stop stop-color="#53AB46"/>
<stop offset="1" stop-color="#107300"/>
</linearGradient>
<linearGradient id="paint10_linear_1189_44" x1="16.3042" y1="9.16511" x2="18.7039" y2="6.76542" gradientUnits="userSpaceOnUse">
<stop stop-color="#53AB46"/>
<stop offset="1" stop-color="#107300"/>
</linearGradient>
<linearGradient id="paint11_linear_1189_44" x1="16.3042" y1="28.235" x2="18.7039" y2="25.8353" gradientUnits="userSpaceOnUse">
<stop stop-color="#53AB46"/>
<stop offset="1" stop-color="#107300"/>
</linearGradient>
<linearGradient id="paint12_linear_1189_44" x1="15.1702" y1="14.1103" x2="20.7737" y2="19.7139" gradientUnits="userSpaceOnUse">
<stop stop-color="#AEED64"/>
<stop offset="1" stop-color="#78C918"/>
</linearGradient>
</defs>
</svg>
