<svg width="14" height="16" viewBox="0 0 14 16" fill="none" xmlns="http://www.w3.org/2000/svg">
<g clip-path="url(#clip0_426_2290)">
<path d="M2 1C0.896875 1 0 1.89688 0 3V13C0 14.1031 0.896875 15 2 15H12C13.1031 15 14 14.1031 14 13V5.41563C14 4.88438 13.7906 4.375 13.4156 4L11 1.58438C10.625 1.20938 10.1156 1 9.58438 1H2ZM2 4C2 3.44688 2.44688 3 3 3H9C9.55313 3 10 3.44688 10 4V6C10 6.55312 9.55313 7 9 7H3C2.44688 7 2 6.55312 2 6V4ZM7 9C7.53043 9 8.03914 9.21071 8.41421 9.58579C8.78929 9.96086 9 10.4696 9 11C9 11.5304 8.78929 12.0391 8.41421 12.4142C8.03914 12.7893 7.53043 13 7 13C6.46957 13 5.96086 12.7893 5.58579 12.4142C5.21071 12.0391 5 11.5304 5 11C5 10.4696 5.21071 9.96086 5.58579 9.58579C5.96086 9.21071 6.46957 9 7 9Z" fill="white"/>
</g>
<defs>
<clipPath id="clip0_426_2290">
<path d="M0 0H14V16H0V0Z" fill="white"/>
</clipPath>
</defs>
</svg>
