<svg width="68" height="68" viewBox="0 0 68 68" fill="none" xmlns="http://www.w3.org/2000/svg">
<rect width="68" height="68" rx="34" fill="white" fill-opacity="0.2"/>
<path d="M34.25 22C34.4656 22 34.6813 22.0469 34.8781 22.1359L43.7047 25.8813C44.736 26.3172 45.5047 27.3344 45.5 28.5625C45.4766 33.2125 43.5641 41.7203 35.4875 45.5875C34.7047 45.9625 33.7953 45.9625 33.0125 45.5875C24.936 41.7203 23.0235 33.2125 23 28.5625C22.9953 27.3344 23.7641 26.3172 24.7953 25.8813L33.6266 22.1359C33.8188 22.0469 34.0344 22 34.25 22ZM34.25 25.1313V42.85C40.7188 39.7188 42.4578 32.7859 42.5 28.6281L34.25 25.1313Z" fill="white"/>
</svg>
