<svg width="13" height="15" viewBox="0 0 13 15" fill="none" xmlns="http://www.w3.org/2000/svg">
<path d="M8.11611 5.65302C8.01929 5.55624 7.88435 5.50073 7.74585 5.50073C7.60538 5.50073 7.47396 5.55478 7.37563 5.65302L5.54227 7.48634L4.90917 6.85315C4.8103 6.75458 4.67892 6.70028 4.53929 6.70028C4.39953 6.70028 4.26807 6.75466 4.16907 6.85357C4.07016 6.95252 4.01566 7.08407 4.01566 7.22391C4.01566 7.36388 4.0702 7.49543 4.16903 7.59421L5.17235 8.59762C5.27042 8.69548 5.4018 8.74936 5.54219 8.74936C5.68266 8.74936 5.81404 8.69544 5.91257 8.59724L8.11619 6.39366C8.3203 6.18955 8.32034 5.85738 8.11611 5.65302Z" fill="#6B7280"/>
<path d="M12.2522 3.09142C12.2439 2.99602 12.1862 2.91198 12.1001 2.87013L6.25771 0.0274615C6.18251 -0.00915382 6.09462 -0.00915382 6.01942 0.0274615L0.177099 2.87009C0.0910067 2.91198 0.0331931 2.99598 0.02494 3.09137C0.0174829 3.17709 -0.150051 5.21959 0.495367 7.71424C0.875554 9.18376 1.46098 10.502 2.23535 11.6325C3.20657 13.0502 4.47759 14.173 6.01322 14.9696C6.05251 14.99 6.09558 15.0002 6.13861 15.0002C6.18163 15.0002 6.2247 14.99 6.26399 14.9696C7.79957 14.173 9.07068 13.0502 10.0419 11.6325C10.8163 10.502 11.4017 9.18376 11.7818 7.71424C12.4272 5.21959 12.2597 3.17713 12.2522 3.09142ZM6.13856 10.5448C4.2287 10.5448 2.67494 8.991 2.67494 7.08114C2.67494 5.17128 4.2287 3.61752 6.13856 3.61752C8.04842 3.61752 9.60219 5.17128 9.60219 7.08114C9.60219 8.991 8.04842 10.5448 6.13856 10.5448Z" fill="#6B7280"/>
</svg>
