<svg width="32" height="32" viewBox="0 0 32 32" fill="none" xmlns="http://www.w3.org/2000/svg">
<path d="M24 0C28.4183 0 32 3.58172 32 8V24C32 28.4183 28.4183 32 24 32H8C3.58172 32 0 28.4183 0 24V8C0 3.58172 3.58172 0 8 0H24Z" fill="#F9FAFB"/>
<path d="M24 0C28.4183 0 32 3.58172 32 8V24C32 28.4183 28.4183 32 24 32H8C3.58172 32 0 28.4183 0 24V8C0 3.58172 3.58172 0 8 0H24Z" stroke="#E5E7EB"/>
<path d="M15.5625 9C15.6883 9 15.8141 9.02734 15.9289 9.0793L21.0777 11.2641C21.6793 11.5184 22.1277 12.1117 22.125 12.8281C22.1113 15.5406 20.9957 20.5035 16.2844 22.7594C15.8277 22.9781 15.2973 22.9781 14.8406 22.7594C10.1293 20.5035 9.01368 15.5406 9.00001 12.8281C8.99728 12.1117 9.44572 11.5184 10.0473 11.2641L15.1988 9.0793C15.3109 9.02734 15.4367 9 15.5625 9ZM15.5625 10.8266V21.1625C19.3359 19.3359 20.3504 15.2918 20.375 12.8664L15.5625 10.8266Z" fill="#4B5563"/>
</svg>
