<svg width="32" height="32" viewBox="0 0 32 32" fill="none" xmlns="http://www.w3.org/2000/svg">
<path d="M24 0C28.4183 0 32 3.58172 32 8V24C32 28.4183 28.4183 32 24 32H8C3.58172 32 0 28.4183 0 24V8C0 3.58172 3.58172 0 8 0H24Z" fill="#F9FAFB"/>
<path d="M24 0C28.4183 0 32 3.58172 32 8V24C32 28.4183 28.4183 32 24 32H8C3.58172 32 0 28.4183 0 24V8C0 3.58172 3.58172 0 8 0H24Z" stroke="#E5E7EB"/>
<path d="M23 26H9V6H23V26Z" stroke="#E5E7EB"/>
<g clip-path="url(#clip0_425_1829)">
<path d="M16 8.75C16.1258 8.75 16.2516 8.77734 16.3664 8.8293L21.5152 11.0141C22.1168 11.2684 22.5652 11.8617 22.5625 12.5781C22.5488 15.2906 21.4332 20.2535 16.7219 22.5094C16.2652 22.7281 15.7348 22.7281 15.2781 22.5094C10.5668 20.2535 9.45118 15.2906 9.43751 12.5781C9.43478 11.8617 9.88322 11.2684 10.4848 11.0141L15.6363 8.8293C15.7484 8.77734 15.8742 8.75 16 8.75ZM16 10.5766V20.9125C19.7734 19.0859 20.7879 15.0418 20.8125 12.6164L16 10.5766Z" fill="#4B5563"/>
</g>
<defs>
<clipPath id="clip0_425_1829">
<path d="M9 8.75H23V22.75H9V8.75Z" fill="white"/>
</clipPath>
</defs>
</svg>
