<svg width="32" height="32" viewBox="0 0 32 32" fill="none" xmlns="http://www.w3.org/2000/svg">
<path d="M0 8C0 3.58172 3.58172 0 8 0H24C28.4183 0 32 3.58172 32 8V24C32 28.4183 28.4183 32 24 32H8C3.58172 32 0 28.4183 0 24V8Z" fill="#FCFFE8"/>
<path d="M22.1875 9H10.8125C10.597 9 10.3903 9.12292 10.238 9.34171C10.0856 9.5605 10 9.85725 10 10.1667V21.8333C10 22.1428 10.0856 22.4395 10.238 22.6583C10.3903 22.8771 10.597 23 10.8125 23H22.1875C22.403 23 22.6097 22.8771 22.762 22.6583C22.9144 22.4395 23 22.1428 23 21.8333V10.1667C23 9.85725 22.9144 9.5605 22.762 9.34171C22.6097 9.12292 22.403 9 22.1875 9ZM16.9063 18.3333H12.8438C12.736 18.3333 12.6327 18.2719 12.5565 18.1625C12.4803 18.0531 12.4375 17.9047 12.4375 17.75C12.4375 17.5953 12.4803 17.4469 12.5565 17.3375C12.6327 17.2281 12.736 17.1667 12.8438 17.1667H16.9063C17.014 17.1667 17.1173 17.2281 17.1935 17.3375C17.2697 17.4469 17.3125 17.5953 17.3125 17.75C17.3125 17.9047 17.2697 18.0531 17.1935 18.1625C17.1173 18.2719 17.014 18.3333 16.9063 18.3333ZM20.1562 16H12.8438C12.736 16 12.6327 15.9385 12.5565 15.8291C12.4803 15.7197 12.4375 15.5714 12.4375 15.4167C12.4375 15.262 12.4803 15.1136 12.5565 15.0042C12.6327 14.8948 12.736 14.8333 12.8438 14.8333H20.1562C20.264 14.8333 20.3673 14.8948 20.4435 15.0042C20.5197 15.1136 20.5625 15.262 20.5625 15.4167C20.5625 15.5714 20.5197 15.7197 20.4435 15.8291C20.3673 15.9385 20.264 16 20.1562 16ZM20.1562 13.6667H12.8438C12.736 13.6667 12.6327 13.6052 12.5565 13.4958C12.4803 13.3864 12.4375 13.238 12.4375 13.0833C12.4375 12.9286 12.4803 12.7803 12.5565 12.6709C12.6327 12.5615 12.736 12.5 12.8438 12.5H20.1562C20.264 12.5 20.3673 12.5615 20.4435 12.6709C20.5197 12.7803 20.5625 12.9286 20.5625 13.0833C20.5625 13.238 20.5197 13.3864 20.4435 13.4958C20.3673 13.6052 20.264 13.6667 20.1562 13.6667Z" fill="#89A100"/>
</svg>
