<svg width="24" height="24" viewBox="0 0 24 24" fill="none" xmlns="http://www.w3.org/2000/svg">
<path d="M12 0C18.6274 0 24 5.37258 24 12C24 18.6274 18.6274 24 12 24C5.37258 24 0 18.6274 0 12C0 5.37258 5.37258 0 12 0Z" fill="#DBEAFE"/>
<path d="M12 0C18.6274 0 24 5.37258 24 12C24 18.6274 18.6274 24 12 24C5.37258 24 0 18.6274 0 12C0 5.37258 5.37258 0 12 0Z" stroke="#E5E7EB"/>
<path d="M17.25 20H6.75V4H17.25V20Z" stroke="#E5E7EB"/>
<g clip-path="url(#clip0_477_599)">
<path d="M17.0297 7.97034C17.3227 8.26331 17.3227 8.73909 17.0297 9.03206L11.0297 15.0321C10.7368 15.325 10.261 15.325 9.96802 15.0321L6.96802 12.0321C6.67505 11.7391 6.67505 11.2633 6.96802 10.9703C7.26099 10.6774 7.73677 10.6774 8.02974 10.9703L10.5 13.4383L15.9704 7.97034C16.2633 7.67737 16.7391 7.67737 17.0321 7.97034H17.0297Z" fill="#2563EB"/>
</g>
<defs>
<clipPath id="clip0_477_599">
<path d="M6.75 5.5H17.25V17.5H6.75V5.5Z" fill="white"/>
</clipPath>
</defs>
</svg>
