<svg width="48" height="48" viewBox="0 0 48 48" fill="none" xmlns="http://www.w3.org/2000/svg">
<path d="M36 0C42.6274 0 48 5.37258 48 12V36C48 42.6274 42.6274 48 36 48H12C5.37258 48 0 42.6274 0 36V12C0 5.37258 5.37258 0 12 0H36Z" fill="#06B6D4" fill-opacity="0.1"/>
<path d="M36 0C42.6274 0 48 5.37258 48 12V36C48 42.6274 42.6274 48 36 48H12C5.37258 48 0 42.6274 0 36V12C0 5.37258 5.37258 0 12 0H36Z" stroke="#E5E7EB"/>
<path d="M36.5 38H11.5V10H36.5V38Z" stroke="#E5E7EB"/>
<g clip-path="url(#clip0_921_102)">
<path d="M13.375 13.5C12.3398 13.5 11.5 14.3398 11.5 15.375V27.875C11.5 28.9102 12.3398 29.75 13.375 29.75H14C14 31.8203 15.6797 33.5 17.75 33.5C19.8203 33.5 21.5 31.8203 21.5 29.75H26.5C26.5 31.8203 28.1797 33.5 30.25 33.5C32.3203 33.5 34 31.8203 34 29.75H35.25C35.9414 29.75 36.5 29.1914 36.5 28.5C36.5 27.8086 35.9414 27.25 35.25 27.25V24.75V23.5V22.7695C35.25 22.1055 34.9883 21.4688 34.5195 21L31.5 17.9805C31.0312 17.5117 30.3945 17.25 29.7305 17.25H27.75V15.375C27.75 14.3398 26.9102 13.5 25.875 13.5H13.375ZM27.75 19.75H29.7305L32.75 22.7695V23.5H27.75V19.75ZM15.875 29.75C15.875 29.2527 16.0725 28.7758 16.4242 28.4242C16.7758 28.0725 17.2527 27.875 17.75 27.875C18.2473 27.875 18.7242 28.0725 19.0758 28.4242C19.4275 28.7758 19.625 29.2527 19.625 29.75C19.625 30.2473 19.4275 30.7242 19.0758 31.0758C18.7242 31.4275 18.2473 31.625 17.75 31.625C17.2527 31.625 16.7758 31.4275 16.4242 31.0758C16.0725 30.7242 15.875 30.2473 15.875 29.75ZM30.25 27.875C30.7473 27.875 31.2242 28.0725 31.5758 28.4242C31.9275 28.7758 32.125 29.2527 32.125 29.75C32.125 30.2473 31.9275 30.7242 31.5758 31.0758C31.2242 31.4275 30.7473 31.625 30.25 31.625C29.7527 31.625 29.2758 31.4275 28.9242 31.0758C28.5725 30.7242 28.375 30.2473 28.375 29.75C28.375 29.2527 28.5725 28.7758 28.9242 28.4242C29.2758 28.0725 29.7527 27.875 30.25 27.875Z" fill="#06B6D4"/>
</g>
<defs>
<clipPath id="clip0_921_102">
<path d="M11.5 13.5H36.5V33.5H11.5V13.5Z" fill="white"/>
</clipPath>
</defs>
</svg>
