<svg width="48" height="48" viewBox="0 0 48 48" fill="none" xmlns="http://www.w3.org/2000/svg">
<path d="M36 0C42.6274 0 48 5.37258 48 12V36C48 42.6274 42.6274 48 36 48H12C5.37258 48 0 42.6274 0 36V12C0 5.37258 5.37258 0 12 0H36Z" fill="#06B6D4" fill-opacity="0.1"/>
<path d="M36 0C42.6274 0 48 5.37258 48 12V36C48 42.6274 42.6274 48 36 48H12C5.37258 48 0 42.6274 0 36V12C0 5.37258 5.37258 0 12 0H36Z" stroke="#E5E7EB"/>
<path d="M12.875 14C11.8398 14 11 14.8398 11 15.875V28.375C11 29.4102 11.8398 30.25 12.875 30.25H13.5C13.5 32.3203 15.1797 34 17.25 34C19.3203 34 21 32.3203 21 30.25H26C26 32.3203 27.6797 34 29.75 34C31.8203 34 33.5 32.3203 33.5 30.25H34.75C35.4414 30.25 36 29.6914 36 29C36 28.3086 35.4414 27.75 34.75 27.75V25.25V24V23.2695C34.75 22.6055 34.4883 21.9688 34.0195 21.5L31 18.4805C30.5312 18.0117 29.8945 17.75 29.2305 17.75H27.25V15.875C27.25 14.8398 26.4102 14 25.375 14H12.875ZM27.25 20.25H29.2305L32.25 23.2695V24H27.25V20.25ZM15.375 30.25C15.375 29.7527 15.5725 29.2758 15.9242 28.9242C16.2758 28.5725 16.7527 28.375 17.25 28.375C17.7473 28.375 18.2242 28.5725 18.5758 28.9242C18.9275 29.2758 19.125 29.7527 19.125 30.25C19.125 30.7473 18.9275 31.2242 18.5758 31.5758C18.2242 31.9275 17.7473 32.125 17.25 32.125C16.7527 32.125 16.2758 31.9275 15.9242 31.5758C15.5725 31.2242 15.375 30.7473 15.375 30.25ZM29.75 28.375C30.2473 28.375 30.7242 28.5725 31.0758 28.9242C31.4275 29.2758 31.625 29.7527 31.625 30.25C31.625 30.7473 31.4275 31.2242 31.0758 31.5758C30.7242 31.9275 30.2473 32.125 29.75 32.125C29.2527 32.125 28.7758 31.9275 28.4242 31.5758C28.0725 31.2242 27.875 30.7473 27.875 30.25C27.875 29.7527 28.0725 29.2758 28.4242 28.9242C28.7758 28.5725 29.2527 28.375 29.75 28.375Z" fill="#06B6D4"/>
</svg>
