<svg width="20" height="16" viewBox="0 0 20 16" fill="none" xmlns="http://www.w3.org/2000/svg">
<g clip-path="url(#clip0_426_2101)">
<path d="M6.49998 11C10.0906 11 13 8.5375 13 5.5C13 2.4625 10.0906 0 6.49998 0C2.90935 0 -2.41971e-05 2.4625 -2.41971e-05 5.5C-2.41971e-05 6.70625 0.459351 7.82187 1.23748 8.73125C1.1281 9.025 0.965601 9.28438 0.793726 9.50313C0.643726 9.69688 0.490601 9.84688 0.378101 9.95C0.321851 10 0.274976 10.0406 0.243726 10.0656C0.228101 10.0781 0.215601 10.0875 0.209351 10.0906L0.203101 10.0969C0.0312258 10.225 -0.0437742 10.45 0.0249758 10.6531C0.0937258 10.8562 0.284351 11 0.499976 11C1.18123 11 1.86873 10.825 2.4406 10.6094C2.7281 10.5 2.99685 10.3781 3.23123 10.2531C4.1906 10.7281 5.30623 11 6.49998 11ZM14 5.5C14 9.00937 10.9031 11.6531 7.23435 11.9688C7.99373 14.2937 10.5125 16 13.5 16C14.6937 16 15.8094 15.7281 16.7719 15.2531C17.0062 15.3781 17.2719 15.5 17.5594 15.6094C18.1312 15.825 18.8187 16 19.5 16C19.7156 16 19.9094 15.8594 19.975 15.6531C20.0406 15.4469 19.9687 15.2219 19.7937 15.0938L19.7875 15.0875C19.7812 15.0812 19.7687 15.075 19.7531 15.0625C19.7218 15.0375 19.675 15 19.6187 14.9469C19.5062 14.8438 19.3531 14.6938 19.2031 14.5C19.0312 14.2812 18.8687 14.0187 18.7593 13.7281C19.5375 12.8219 19.9969 11.7063 19.9969 10.4969C19.9969 7.59687 17.3437 5.21875 13.9781 5.0125C13.9906 5.17188 13.9969 5.33437 13.9969 5.49687L14 5.5Z" fill="#374151"/>
</g>
<defs>
<clipPath id="clip0_426_2101">
<path d="M0 0H20V16H0V0Z" fill="white"/>
</clipPath>
</defs>
</svg>
