<svg width="36" height="25" viewBox="0 0 36 25" fill="none" xmlns="http://www.w3.org/2000/svg">
<path d="M34.9384 3.9083C34.5272 2.38009 33.3223 1.17548 31.7944 0.763969C29.0028 0 17.8364 0 17.8364 0C17.8364 0 6.67023 0 3.87863 0.734847C2.38009 1.14609 1.14582 2.38036 0.734575 3.9083C0 6.69963 0 12.4886 0 12.4886C0 12.4886 0 18.3067 0.734575 21.0689C1.14609 22.5968 2.35069 23.8017 3.8789 24.2132C6.69963 24.9772 17.8366 24.9772 17.8366 24.9772C17.8366 24.9772 29.0028 24.9772 31.7944 24.2423C33.3226 23.8311 34.5272 22.6262 34.9387 21.0983C35.6733 18.3067 35.6733 12.518 35.6733 12.518C35.6733 12.518 35.7027 6.69963 34.9384 3.9083Z" fill="#FF0000"/>
<path d="M14.281 17.8367L23.5665 12.4887L14.281 7.14062V17.8367Z" fill="white"/>
</svg>
