<?xml version="1.0" encoding="UTF-8"?>
<svg id="Layer_1" data-name="Layer 1" xmlns="http://www.w3.org/2000/svg" xmlns:xlink="http://www.w3.org/1999/xlink" viewBox="0 0 228.17 99.13">
  <defs>
    <style>
      .cls-1 {
        mask: url(#mask);
      }

      .cls-2, .cls-3, .cls-4 {
        fill: #fff;
      }

      .cls-2, .cls-4 {
        stroke: #fff;
      }

      .cls-4 {
        stroke-miterlimit: 4;
        stroke-width: 1px;
      }
    </style>
    <mask id="mask" x="29.06" y="24.32" width="58.46" height="58.46" maskUnits="userSpaceOnUse">
      <g id="mask0_413_142" data-name="mask0 413 142">
        <rect class="cls-4" x="36.65" y="31.91" width="43.28" height="43.28" rx="4.5" ry="4.5" transform="translate(-20.86 54.38) rotate(-43.17)"/>
      </g>
    </mask>
  </defs>
  <path class="cls-3" d="M184.3,40.29l-11.32,18.32v12.12h-4.17v-12.12l-11.32-18.32h5.21l8.43,14.63,8.38-14.63h4.78Z"/>
  <path class="cls-3" d="M146.83,39.42l-11.35,31.71h-4.93l-11.35-31.71h5.03l7.76,23.02,8.19-23.02h6.65Z"/>
  <path class="cls-3" d="M165.51,35.44l5.61,9.74,5.58-9.74h16.28l-15.16,24.55v15.59h-13.86v-15.59l-15.16-24.55h16.7Z"/>
  <path class="cls-3" d="M127.87,35.44l4.89,14.59,4.89-14.59h15.08l-14.23,40.14h-11.54l-14.23-40.14h15.13Z"/>
  <path class="cls-3" d="M112.88,57.19c0,5.45-1,10.54-4.08,14.07-3.2,3.67-7.92,4.98-12.93,4.98s-9.78-1.29-12.96-5.01c-3.03-3.54-4.01-8.61-4.01-14.04v-21.75h13.86v21.75c0,1.95.18,3.29.43,4.17.17.59.33.83.37.88.28.24.46.33.56.36.35.08.92.15,1.75.15s1.33-.07,1.64-.15c.12-.04.33-.14.64-.38.05-.07.19-.31.35-.87.25-.87.43-2.22.43-4.17v-21.75h13.96v21.75Z"/>
  <g class="cls-1">
    <path class="cls-2" d="M66.3,34.42c2.58.05,4.91.12,6.96.2,2.06.08,3.64.14,4.75.2h0c.4.02.64.32.77.56.14.26.23.6.31.99.2.8.32,1.72.35,2.73.03,1.03-.04,2.06-.23,3.08-.19,1.03-.48,1.86-.93,2.44v.02c-1.27,1.49-2.83,3.08-4.66,4.77h0c-1.83,1.66-3.8,3.38-5.89,5.16-2.09,1.78-4.21,3.59-6.36,5.44-1.8,1.55-3.51,3.08-5.13,4.58,3.24.05,6.52.14,9.84.26h0c3.79.15,7.6.23,11.45.24h0c.64.01,1.06.45,1.3,1.02.23.53.35,1.17.4,1.89.09.73.1,1.51.03,2.35v.31c-.04.71-.14,1.39-.29,2.05l-.05.27c-.13.61-.32,1.15-.59,1.61-.12.25-.27.48-.45.65-.19.18-.44.31-.73.3h0s-40.4-.9-40.4-.9h0c-.35,0-.64-.17-.85-.43-.2-.24-.32-.56-.4-.92-.15-.67-.25-1.45-.28-2.34h0c-.03-.91-.04-1.83-.02-2.77h0s0-.03,0-.03c.07-.96.14-1.78.21-2.45h0c.08-.8.54-1.47,1.26-2.02h.02c.69-.49,1.19-.86,1.5-1.1l20.68-17.94c-3.41-.07-6.62-.16-9.62-.25-3.37-.1-6.98-.2-10.83-.28-.6-.01-1.05-.39-1.36-.91l-.02-.03v-.03c-.23-.51-.41-1.11-.56-1.79v-.02s0-.02,0-.02c-.09-.73-.13-1.5-.12-2.32.02-.82.09-1.57.21-2.26v-.02s0-.02,0-.02c.18-.71.39-1.31.63-1.79v-.03c.33-.54.79-.93,1.42-.92l4.74.1c2.06,0,4.35.04,6.88.1h0c2.58.02,5.27.06,8.07.12h0c2.8.02,5.46.06,7.99.12Z"/>
  </g>
</svg>