<svg width="126" height="48" viewBox="0 0 126 48" fill="none" xmlns="http://www.w3.org/2000/svg">
<path d="M119.402 13.6917L110.814 27.5991V36.7988H107.651V27.5991L99.0625 13.6917H103.015L109.412 24.7961L115.773 13.6917H119.402Z" fill="white"/>
<path d="M90.9609 13.0291L82.3476 37.1018H78.6077L69.9944 13.0291H73.8099L79.7011 30.5012L85.9134 13.0291H90.9609Z" fill="white"/>
<path d="M61.5123 26.521C61.5123 30.3542 60.7815 33.1094 59.3201 34.7864C57.8587 36.4634 55.5109 37.3019 52.2766 37.3019C49.0184 37.3019 46.6705 36.4634 45.2331 34.7864C43.7956 33.1094 43.0769 30.3542 43.0769 26.521V13.6917H46.2393V26.521C46.2393 28.1981 46.395 29.5876 46.7065 30.6896C47.0179 31.7677 47.4731 32.5703 48.0721 33.0974C48.671 33.6244 49.2939 33.9838 49.9407 34.1755C50.5876 34.3432 51.3662 34.427 52.2766 34.427C53.163 34.427 53.9177 34.3432 54.5406 34.1755C55.1875 33.9838 55.8104 33.6364 56.4093 33.1333C57.0322 32.6062 57.4994 31.7917 57.8108 30.6896C58.1223 29.5876 58.278 28.1981 58.278 26.521V13.6917H61.5123V26.521Z" fill="white"/>
<path d="M105.142 10.0115L109.402 17.4079L113.639 10.0115H126L114.494 28.6429V40.479H103.971V28.6429L92.4646 10.0115H105.142ZM110.813 36.7988V27.5991L119.402 13.6917H115.773L109.412 24.7961L103.015 13.6917H99.0622L107.651 27.5991V36.7988H110.813Z" fill="white"/>
<path d="M76.5672 10.0115L80.2817 21.0881L83.9946 10.0115H95.4452L84.6414 40.479H81.5444H80.2817H79.019H75.8844L65.0823 10.0115H76.5672ZM70.2914 13.6917L78.4849 36.7988H82.0426L90.2361 13.6917H86.6425L80.2817 32.6661L73.921 13.6917H70.2914Z" fill="white"/>
<path d="M46.2393 26.521V13.6917H43.0769V26.521C43.0769 30.3542 43.7957 33.1094 45.2331 34.7864C46.6706 36.4634 49.0184 37.3019 52.2766 37.3019C55.5109 37.3019 57.8588 36.4634 59.3202 34.7864C60.7816 33.1094 61.5123 30.3542 61.5123 26.521V13.6917H58.278V26.521C58.278 28.1981 58.1223 29.5876 57.8108 30.6896C57.4994 31.7917 57.0322 32.6062 56.4093 33.1333C55.8104 33.6364 55.1875 33.9838 54.5406 34.1755C53.9177 34.3432 53.1631 34.427 52.2766 34.427C51.3663 34.427 50.5876 34.3432 49.9408 34.1755C49.2939 33.9838 48.671 33.6244 48.0721 33.0974C47.4732 32.5703 47.018 31.7677 46.7065 30.6896C46.3951 29.5876 46.2393 28.1981 46.2393 26.521ZM65.1925 26.521C65.1925 30.6557 64.4347 34.5176 62.0938 37.2039C59.6639 39.9921 56.0807 40.9821 52.2766 40.9821C48.4648 40.9821 44.8559 39.9996 42.4399 37.1811C40.139 34.4967 39.3967 30.6455 39.3967 26.521V10.0115H49.9195V26.521C49.9195 27.9983 50.0592 29.0212 50.2462 29.6851C50.3782 30.1361 50.499 30.3158 50.5272 30.3548C50.7366 30.5353 50.879 30.6031 50.9503 30.6308C51.2184 30.6904 51.6454 30.7468 52.2766 30.7468C52.8894 30.7468 53.2861 30.69 53.5181 30.6357C53.6103 30.6048 53.7719 30.5331 54.0016 30.3466C54.0362 30.2966 54.149 30.1147 54.2695 29.6883C54.457 29.0246 54.5978 28.0008 54.5978 26.521V10.0115H65.1925V26.521Z" fill="white"/>
<mask id="mask0_426_2375" style="mask-type:alpha" maskUnits="userSpaceOnUse" x="2" y="2" width="44" height="44">
<rect x="24.4911" y="0.706781" width="32.612" height="32.612" rx="4.5" transform="rotate(46.8287 24.4911 0.706781)" fill="white" stroke="white"/>
</mask>
<g mask="url(#mask0_426_2375)">
<path d="M29.8358 9.11199C31.7981 9.15309 33.5609 9.20288 35.1239 9.26084C36.6843 9.3187 37.8869 9.36864 38.7299 9.41157L38.7289 9.41351C39.0993 9.42811 39.3098 9.70612 39.4122 9.90058C39.5227 10.1105 39.5987 10.3832 39.6556 10.6861C39.8112 11.3059 39.8995 12.0054 39.9243 12.7801C39.9496 13.5712 39.8907 14.3606 39.7487 15.1471C39.6066 15.9343 39.3751 16.5871 39.0163 17.0501L39.0023 17.0674C38.0422 18.1995 36.8617 19.4105 35.4635 20.7001L35.4596 20.704C34.0684 21.9624 32.5765 23.2688 30.9839 24.6228C29.3955 25.9734 27.7858 27.3482 26.1563 28.7482C24.8696 29.8537 23.6464 30.945 22.4864 32.0207C24.8495 32.0584 27.2409 32.1224 29.6606 32.2159C32.5341 32.3264 35.4294 32.387 38.3452 32.3978L38.354 32.398C38.9047 32.4098 39.2565 32.7885 39.4518 33.2434C39.6303 33.6594 39.7269 34.151 39.7601 34.7033L39.8037 35.1399C39.8345 35.5846 39.8277 36.054 39.786 36.5471C39.7711 37.1616 39.6976 37.7535 39.5642 38.3221C39.4677 38.8801 39.3051 39.371 39.0658 39.7807C38.9695 39.9783 38.8536 40.1643 38.7032 40.3055C38.542 40.4567 38.325 40.5719 38.0628 40.5665L38.0618 40.5665L7.39745 39.8862C7.09204 39.8795 6.84106 39.7344 6.66293 39.5123C6.49863 39.3074 6.39973 39.0436 6.33665 38.768C6.21798 38.2495 6.14647 37.6494 6.11931 36.9731L6.11933 36.9721C6.09317 36.2819 6.08793 35.5797 6.10288 34.8658L6.10317 34.8521L6.10443 34.8385C6.1599 34.1073 6.2134 33.4869 6.26449 32.9791L6.26453 32.9772C6.33283 32.3266 6.70165 31.7896 7.26827 31.3631L7.27523 31.3574L7.28317 31.3517C7.80621 30.9886 8.1787 30.716 8.40899 30.5313L23.87 17.1197C21.3943 17.0647 19.0637 17.0063 16.879 16.9391C14.3211 16.8604 11.5827 16.791 8.66385 16.7299C8.14841 16.7191 7.7777 16.3954 7.53291 15.9756L7.51687 15.9489L7.50475 15.9213C7.33608 15.5284 7.19658 15.0653 7.08245 14.5381L7.07799 14.5175L7.07551 14.496C7.00299 13.9382 6.9736 13.3459 6.9867 12.7203C6.99981 12.0949 7.05407 11.5156 7.15004 10.9841L7.15234 10.9675L7.15658 10.952C7.29293 10.405 7.45275 9.93963 7.64364 9.56929L7.65076 9.55576L7.65886 9.54226C7.91285 9.11609 8.29633 8.77419 8.83024 8.78537L12.4222 8.8606C13.9843 8.86812 15.7258 8.8927 17.6455 8.93287C19.6067 8.94877 21.6479 8.9796 23.768 9.02398L23.768 9.02301C25.8906 9.04227 27.9134 9.07173 29.8358 9.11199Z" fill="white" stroke="white"/>
</g>
</svg>
