<svg width="94" height="36" viewBox="0 0 94 36" fill="none" xmlns="http://www.w3.org/2000/svg">
<path d="M89.0784 10.2145L82.6708 20.5898V27.4531H80.3116V20.5898L73.9041 10.2145H76.8531L81.6253 18.4987L86.3706 10.2145H89.0784Z" fill="#0033FF"/>
<path d="M67.8599 9.72009L61.4341 27.6791H58.6439L52.2181 9.72009H55.0646L59.4597 22.7549L64.0943 9.72009H67.8599Z" fill="#0033FF"/>
<path d="M45.8901 19.7855C45.8901 22.6453 45.345 24.7007 44.2547 25.9518C43.1644 27.2029 41.4129 27.8285 39 27.8285C36.5693 27.8285 34.8177 27.2029 33.7453 25.9518C32.6729 24.7007 32.1367 22.6453 32.1367 19.7855V10.2145H34.496V19.7855C34.496 21.0367 34.6121 22.0733 34.8445 22.8955C35.0769 23.6998 35.4164 24.2985 35.8633 24.6917C36.3101 25.0849 36.7748 25.353 37.2574 25.496C37.74 25.6211 38.3208 25.6837 39 25.6837C39.6613 25.6837 40.2243 25.6211 40.689 25.496C41.1716 25.353 41.6363 25.0939 42.0831 24.7185C42.5478 24.3253 42.8964 23.7176 43.1287 22.8955C43.3611 22.0733 43.4772 21.0367 43.4772 19.7855V10.2145H45.8901V19.7855Z" fill="#0033FF"/>
<path d="M78.4395 7.46899L81.6177 12.9869L84.7788 7.46899H94.0002L85.4162 21.3686V30.1988H77.5658V21.3686L68.9818 7.46899H78.4395ZM82.6706 27.4532V20.5899L89.0781 10.2146H86.3704L81.625 18.4988L76.8529 10.2146H73.9038L80.3114 20.5899V27.4532H82.6706Z" fill="#0033FF"/>
<path d="M57.1217 7.46899L59.8929 15.7325L62.6628 7.46899H71.2054L63.1454 30.1988H60.8349H59.8929H58.9509H56.6123L48.5536 7.46899H57.1217ZM52.4398 10.2146L58.5524 27.4532H61.2066L67.3192 10.2146H64.6382L59.8929 24.3701L55.1476 10.2146H52.4398Z" fill="#0033FF"/>
<path d="M34.496 19.7856V10.2146H32.1368V19.7856C32.1368 22.6453 32.673 24.7007 33.7454 25.9519C34.8178 27.203 36.5693 27.8285 39.0001 27.8285C41.413 27.8285 43.1645 27.203 44.2548 25.9519C45.345 24.7007 45.8902 22.6453 45.8902 19.7856V10.2146H43.4773V19.7856C43.4773 21.0367 43.3611 22.0734 43.1288 22.8956C42.8964 23.7177 42.5479 24.3254 42.0832 24.7186C41.6364 25.0939 41.1717 25.3531 40.6891 25.4961C40.2244 25.6212 39.6614 25.6838 39.0001 25.6838C38.3209 25.6838 37.74 25.6212 37.2575 25.4961C36.7749 25.3531 36.3102 25.085 35.8633 24.6918C35.4165 24.2986 35.0769 23.6998 34.8446 22.8956C34.6122 22.0734 34.496 21.0367 34.496 19.7856ZM48.6357 19.7856C48.6357 22.8702 48.0704 25.7513 46.324 27.7554C44.5112 29.8355 41.838 30.5741 39.0001 30.5741C36.1563 30.5741 33.464 29.8411 31.6615 27.7384C29.945 25.7357 29.3912 22.8626 29.3912 19.7856V7.46899H37.2416V19.7856C37.2416 20.8877 37.3458 21.6509 37.4853 22.1461C37.5838 22.4826 37.6739 22.6167 37.6949 22.6457C37.8512 22.7804 37.9574 22.831 38.0106 22.8517C38.2106 22.8961 38.5292 22.9382 39.0001 22.9382C39.4572 22.9382 39.7532 22.8958 39.9262 22.8553C39.995 22.8323 40.1156 22.7788 40.2869 22.6396C40.3128 22.6023 40.3969 22.4666 40.4868 22.1485C40.6267 21.6534 40.7317 20.8896 40.7317 19.7856V7.46899H48.6357V19.7856Z" fill="#0033FF"/>
<mask id="mask0_454_26" style="mask-type:alpha" maskUnits="userSpaceOnUse" x="2" y="2" width="32" height="32">
<rect x="18.2655" y="0.706747" width="24.0757" height="24.0757" rx="4.5" transform="rotate(46.8287 18.2655 0.706747)" fill="#0033FF" stroke="white"/>
</mask>
<g mask="url(#mask0_454_26)">
<path d="M22.2616 6.67094C23.726 6.70162 25.0417 6.73866 26.2084 6.78193C27.3726 6.8251 28.2702 6.86288 28.9 6.89496L28.899 6.89689C29.2443 6.9108 29.4322 7.17018 29.5151 7.32785C29.6031 7.49521 29.6609 7.70398 29.7038 7.92568C29.825 8.40258 29.8925 8.93899 29.9115 9.52999C29.9306 10.1293 29.8867 10.7271 29.7792 11.3225C29.6715 11.9188 29.4938 12.4286 29.2081 12.7972L29.1941 12.8145C28.4736 13.6641 27.5889 14.5721 26.5428 15.5369L26.5398 15.5398L26.2037 15.1694L26.5388 15.5398C25.4998 16.4796 24.3865 17.4557 23.1975 18.4666C22.0125 19.474 20.8117 20.4998 19.5961 21.5442C18.7231 22.2942 17.8885 23.0342 17.094 23.7657C18.755 23.7945 20.4348 23.8417 22.1331 23.9074C24.2753 23.9897 26.4335 24.0349 28.6073 24.043L28.6161 24.0432C29.0957 24.0534 29.3922 24.3858 29.5487 24.7503C29.6885 25.0759 29.763 25.4552 29.7889 25.8738L29.821 26.2066C29.8445 26.5457 29.84 26.9024 29.8084 27.2759C29.7968 27.7371 29.7407 28.182 29.6408 28.6105C29.5669 29.0379 29.4422 29.4208 29.2537 29.7433C29.179 29.8947 29.0855 30.0439 28.9607 30.1611C28.8228 30.2905 28.6302 30.3954 28.3933 30.3905L28.3923 30.3905L5.51605 29.884C5.24607 29.8781 5.02479 29.7483 4.87139 29.5569C4.73191 29.3829 4.65286 29.1651 4.60376 28.9506C4.51302 28.5541 4.45936 28.0985 4.43888 27.5885L4.4389 27.5875C4.41929 27.07 4.41486 26.5437 4.42606 26.0088L4.42635 25.9951L4.42761 25.9814C4.46904 25.4353 4.50834 24.9713 4.54659 24.591L4.54663 24.5891C4.60212 24.0597 4.90275 23.6303 5.34535 23.2969L5.36121 23.2856C5.74889 23.0164 6.02301 22.8156 6.19144 22.6807L17.477 12.8915C15.7517 12.8523 14.1223 12.8119 12.589 12.7647C10.6811 12.7059 8.63831 12.6536 6.46101 12.608C6.01671 12.5987 5.70576 12.3181 5.51003 11.9825L5.49399 11.9558L5.48284 11.9282C5.3529 11.6255 5.2465 11.2712 5.16015 10.8724L5.1557 10.8518L5.15222 10.8312C5.09719 10.4081 5.07574 9.95992 5.08561 9.4877C5.0955 9.01557 5.13591 8.57589 5.2089 8.17163L5.21216 8.15607L5.21543 8.13953C5.3185 7.72613 5.44172 7.36884 5.59023 7.08074L5.60447 7.05369C5.80579 6.71591 6.12765 6.41802 6.59045 6.42771L9.26857 6.4838C10.4345 6.48942 11.7336 6.50811 13.1657 6.53807L13.1658 6.5371C14.6289 6.54896 16.1512 6.5723 17.7327 6.6054L17.7327 6.60442C19.3168 6.61879 20.8269 6.6409 22.2616 6.67094Z" fill="#0033FF" stroke="#0033FF"/>
</g>
</svg>
